<?xml version="1.0" standalone="no"?>
<!DOCTYPE svg PUBLIC "-//W3C//DTD SVG 1.1//EN" "http://www.w3.org/Graphics/SVG/1.1/DTD/svg11.dtd" >
<svg xmlns="http://www.w3.org/2000/svg" xmlns:xlink="http://www.w3.org/1999/xlink" version="1.1">
<metadata>
Created by FontForge 20150102 at Tue Feb  3 09:45:45 2015
 By uniteet7
\251 Mark Simonson/Blue Sky Graphics 1994. Proxima Sans is a trademark of FontHaus Inc.
</metadata>
<defs>
<font id="ProximaSansMedium" horiz-adv-x="632" >
  <font-face 
    font-family="ProximaSansMedium"
    font-weight="500"
    font-stretch="normal"
    units-per-em="1000"
    panose-1="2 0 6 3 4 0 0 2 0 4"
    ascent="800"
    descent="-200"
    x-height="483"
    cap-height="667"
    bbox="-220 -207 1127 907"
    underline-thickness="17"
    underline-position="-159"
    unicode-range="U+0005-2122"
  />
<missing-glyph horiz-adv-x="208" 
 />
    <glyph glyph-name=".notdef" horiz-adv-x="208" 
 />
    <glyph glyph-name=".null" horiz-adv-x="0" 
 />
    <glyph glyph-name="nonmarkingreturn" horiz-adv-x="500" 
 />
    <glyph glyph-name="breve" horiz-adv-x="396" 
d="M372 657l-67 50q-18 -26 -46.5 -41t-62.5 -15t-62 15t-47 41l-66 -50q31 -41 76.5 -64.5t99.5 -23.5t99.5 23.5t75.5 64.5z" />
    <glyph glyph-name="dotaccent" horiz-adv-x="177" 
d="M161 633q0 29 -21 50.5t-51 21.5t-51 -21.5t-21 -50.5q0 -30 21 -51.5t51 -21.5t51 21.5t21 51.5z" />
    <glyph glyph-name="ring" horiz-adv-x="213" 
d="M207 653q0 -40 -27 -69t-73 -29q-45 0 -72 29t-27 69q0 41 27 70t72 29q46 0 73 -29t27 -70zM155 653q0 26 -12.5 42t-35.5 16q-22 0 -34.5 -16t-12.5 -42t12.5 -42t34.5 -16q23 0 35.5 16t12.5 42z" />
    <glyph glyph-name="hungarumlaut" unicode="&#xa;" horiz-adv-x="336" 
d="M171 699h-103l-68 -146h106zM336 699h-103l-68 -146h106z" />
    <glyph glyph-name="ogonek" horiz-adv-x="195" 
d="M194 -151l-32 45q-10 -14 -20 -20.5t-27 -6.5t-27.5 9.5t-10.5 28.5v113h-67v-116q0 -48 28.5 -70t71.5 -22q27 0 49.5 12.5t34.5 26.5z" />
    <glyph glyph-name="caron" horiz-adv-x="265" 
d="M265 700h-95l-36 -79l-39 79h-95l89 -148h92z" />
    <glyph glyph-name="dotlessi" unicode="&#xd;" horiz-adv-x="248" 
d="M189 0v483h-130v-483h130z" />
    <glyph glyph-name="fraction" horiz-adv-x="75" 
d="M304 667h-97l-427 -667h98z" />
    <glyph glyph-name="fi" horiz-adv-x="514" 
d="M455 0v483h-129v-483h129zM434 607q-36 43 -78.5 59.5t-99.5 16.5q-36 0 -70.5 -10t-61.5 -30t-43 -50t-16 -70v-40h-80v-97h80v-386h130v386h91v97h-91v39q0 30 23 46t52 16q31 0 54.5 -10.5t40.5 -37.5z" />
    <glyph glyph-name="fl" horiz-adv-x="514" 
d="M455 0v667h-129v-25q-11 16 -36.5 28.5t-51.5 12.5q-36 0 -67.5 -11.5t-55 -32.5t-37 -50.5t-13.5 -65.5v-40h-80v-97h80v-386h130v386h91v97h-91v39q0 29 18 45.5t45 16.5q18 0 38.5 -7t29.5 -18v-559h129z" />
    <glyph glyph-name="Lslash" horiz-adv-x="508" 
d="M488 0v118h-282v186h74v78h-74v285h-144v-285h-62v-78h62v-304h426z" />
    <glyph glyph-name="lslash" horiz-adv-x="248" 
d="M267 304v75h-78v288h-130v-288h-76v-75h76v-304h130v304h78z" />
    <glyph glyph-name="Zcaron" horiz-adv-x="610" 
d="M570 0v118h-354l347 431v118h-521v-118h339l-339 -427v-122h528zM442 875h-95l-36 -79l-39 79h-95l89 -148h92z" />
    <glyph glyph-name="zcaron" horiz-adv-x="479" 
d="M441 0v97h-255l251 290v96h-397v-96h245l-245 -285v-102h401zM375 700h-95l-36 -79l-39 79h-95l89 -148h92z" />
    <glyph glyph-name="space" unicode=" " horiz-adv-x="208" 
 />
    <glyph glyph-name="space" unicode="&#xa0;" horiz-adv-x="208" 
 />
    <glyph glyph-name="exclam" unicode="!" horiz-adv-x="250" 
d="M205 667h-159l23 -451h113zM211 79q0 18 -7 33.5t-18.5 27t-27 18.5t-33.5 7t-33.5 -7t-27 -18.5t-18 -27t-6.5 -33.5t6.5 -33.5t18 -27t27 -18.5t33.5 -7t33.5 7t27 18.5t18.5 27t7 33.5z" />
    <glyph glyph-name="quotedbl" unicode="&#x22;" horiz-adv-x="432" 
d="M393 600q-1 32 -24 55t-55 23t-55 -23t-23 -55q0 -5 0.5 -9t1.5 -9l45 -194h62l45 195q3 9 2 17h1zM195 600q0 32 -23 55t-55 23t-55 -23t-23 -55v-9t2 -9l45 -194h62l45 195q2 4 2 8v9z" />
    <glyph glyph-name="numbersign" unicode="#" 
d="M605 495h-98q6 18 15.5 47t19 57t16 48l6.5 20h-91l-6.5 -20t-16 -48t-19 -57t-15.5 -47h-94l57 172h-91l-57 -172h-100l-26 -82h98l-53 -160h-98l-25 -81h96l-58 -172h91l57 172h95l-58 -172h91l57 172h103l26 81h-102l6.5 18t15 43.5t17.5 53t15 45.5h101zM388 413
q-6 -18 -15 -45.5t-17.5 -53l-14.5 -43.5l-6 -18h-94l53 160h94z" />
    <glyph glyph-name="dollar" unicode="$" 
d="M590 194q0 47 -16.5 81.5t-46.5 59t-72.5 40.5t-95.5 27v171q38 -8 72.5 -28.5t54.5 -44.5l83 87q-29 32 -80 60.5t-130 36.5v84h-92l1 -83q-50 -5 -91 -23t-70 -45t-45.5 -61.5t-16.5 -71.5q0 -34 10.5 -65.5t36 -58.5t68.5 -47t108 -32l-1 -188q-27 5 -51 16.5
t-43.5 26t-34 29t-21.5 24.5l-85 -97q16 -17 38 -35t51 -33.5t65.5 -27t81.5 -14.5l-1 -82h92v83q48 6 90 21.5t73.5 41.5t49.5 63t18 85zM270 420q-45 9 -65 27.5t-20 44.5q0 36 25.5 57t59.5 25v-154zM450 180q0 -38 -27.5 -59.5t-67.5 -26.5v169q95 -21 95 -83z" />
    <glyph glyph-name="percent" unicode="%" horiz-adv-x="779" 
d="M367 518q0 34 -12 65t-34.5 54t-53.5 36.5t-70 13.5t-70 -13.5t-53.5 -36.5t-34.5 -54t-12 -65t12 -64.5t34.5 -53.5t53.5 -36.5t70 -13.5t70 13.5t53.5 36.5t34.5 53.5t12 64.5zM653 667h-97l-427 -667h98zM754 148q0 34 -12 64.5t-34.5 53.5t-54 36.5t-70.5 13.5
t-70 -13.5t-53.5 -36.5t-34.5 -53.5t-12 -64.5t12 -64.5t34.5 -53.5t53.5 -36.5t70 -13.5t70.5 13.5t54 36.5t34.5 53.5t12 64.5zM279 518q0 -44 -22 -71t-60 -27q-39 0 -60.5 27t-21.5 71q0 45 21.5 72t60.5 27q38 0 60 -27t22 -72zM665 148q0 -45 -21.5 -72t-60.5 -27
q-38 0 -59.5 27t-21.5 72t21.5 72t59.5 27q39 0 60.5 -27t21.5 -72z" />
    <glyph glyph-name="ampersand" unicode="&#x26;" horiz-adv-x="668" 
d="M661 0q-26 29 -58 65.5t-64 71.5q12 16 23.5 35.5t22.5 40t20.5 41t16.5 39.5l-107 46q-10 -30 -21 -57.5t-29 -59.5q-26 29 -46.5 54t-36.5 46q-5 6 -13 16t-13 17q67 35 110.5 81.5t43.5 106.5q0 34 -14 61t-38 45.5t-55.5 28t-67.5 9.5q-45 0 -81 -13t-61.5 -35.5
t-39 -52.5t-13.5 -64q0 -35 12.5 -68.5t38.5 -71.5q-84 -44 -117 -95.5t-33 -107.5q0 -51 19.5 -88.5t51 -62t71 -36.5t80.5 -12q65 0 112 20t76 49q11 -13 23 -27.5t18 -21.5h169zM394 529q0 -29 -25 -51.5t-64 -42.5q-12 19 -22 41t-10 42q0 33 19 52t48 19q21 0 37.5 -18
t16.5 -42zM382 130q-18 -17 -44 -29.5t-61 -12.5q-16 0 -32.5 6t-30.5 18t-23 31t-9 45q0 34 14.5 58.5t55.5 48.5q7 -9 14 -19.5t14 -19.5q22 -29 47.5 -59.5t54.5 -66.5z" />
    <glyph glyph-name="quotesingle" unicode="'" horiz-adv-x="236" 
d="M196 600q0 32 -23 55t-55 23t-55 -23t-23 -55v-9t2 -9l45 -194h62l45 195q2 4 2 8v9z" />
    <glyph glyph-name="parenleft" unicode="(" horiz-adv-x="288" 
d="M279 -77q-48 91 -73 191.5t-25 218.5t25 219t73 192l-82 31q-34 -39 -62.5 -89t-49.5 -107t-32.5 -119.5t-11.5 -126.5q0 -63 11.5 -125t32.5 -119.5t49.5 -107.5t62.5 -89z" />
    <glyph glyph-name="parenright" unicode=")" horiz-adv-x="288" 
d="M247 333q0 64 -11.5 126.5t-32.5 119.5t-49.5 107t-62.5 89l-82 -31q48 -91 73 -192t25 -219t-25 -218.5t-73 -191.5l82 -31q34 39 62.5 89t49.5 107.5t32.5 119.5t11.5 125z" />
    <glyph glyph-name="asterisk" unicode="*" horiz-adv-x="348" 
d="M326 483l-93 49l93 48l-34 58l-89 -56l5 105h-68l5 -105l-88 56l-34 -58l93 -48l-93 -49l34 -58l88 56l-5 -104h68l-5 104l89 -56z" />
    <glyph glyph-name="plus" unicode="+" horiz-adv-x="511" 
d="M482 205v80h-182v198h-89v-198h-182v-80h182v-205h89v205h182z" />
    <glyph glyph-name="comma" unicode="," horiz-adv-x="250" 
d="M211 68q0 27 -8 45.5t-21 30t-28 16.5t-29 5q-18 0 -33.5 -7t-27 -18.5t-18 -27t-6.5 -33.5q0 -26 15 -46.5t35 -28.5q8 -3 19 -4.5t19 0.5q-2 -12 -10 -24t-19 -23.5t-22.5 -22t-21.5 -18.5l57 -46q48 43 73.5 93t25.5 109z" />
    <glyph glyph-name="hyphen" unicode="-" horiz-adv-x="300" 
d="M270 184v115h-240v-115h240z" />
    <glyph glyph-name="period" unicode="." horiz-adv-x="250" 
d="M211 79q0 18 -7 33.5t-18.5 27t-27 18.5t-33.5 7t-33.5 -7t-27 -18.5t-18 -27t-6.5 -33.5t6.5 -33.5t18 -27t27 -18.5t33.5 -7t33.5 7t27 18.5t18.5 27t7 33.5z" />
    <glyph glyph-name="slash" unicode="/" horiz-adv-x="327" 
d="M327 687h-90l-237 -707h90z" />
    <glyph glyph-name="zero" unicode="0" 
d="M610 333q0 64 -17 127.5t-53 113.5t-91.5 81.5t-131.5 31.5q-77 0 -132 -31.5t-91 -81.5t-53 -113.5t-17 -127.5t17 -127t53 -113.5t91 -81.5t132 -31q76 0 131.5 31t91.5 81.5t53 113.5t17 127zM464 333q0 -38 -6.5 -79t-23 -76t-45 -57.5t-72.5 -22.5t-72.5 22.5
t-45 57.5t-23 76t-6.5 79t6.5 79.5t23 76t45 57t72.5 22.5t72.5 -22.5t45 -57t23 -76t6.5 -79.5z" />
    <glyph glyph-name="one" unicode="1" 
d="M446 0v667h-124l-206 -204l87 -89l98 104v-478h145z" />
    <glyph glyph-name="two" unicode="2" 
d="M581 0v118h-322l15 13t40 33.5t58 46.5t68 52q23 17 47.5 40t44 50.5t32 59.5t12.5 67q0 97 -68 152t-190 55q-40 0 -81 -8.5t-77.5 -23t-65.5 -34t-44 -42.5l84 -95q23 33 70 58.5t103 25.5q51 0 87 -24.5t36 -76.5q0 -38 -32.5 -73.5t-87.5 -77.5q-49 -38 -94.5 -75.5
t-80.5 -67t-56 -48l-21 -18.5v-107h523z" />
    <glyph glyph-name="three" unicode="3" 
d="M584 179q0 67 -42.5 111t-115.5 54q32 4 59 18.5t46.5 35.5t30.5 47.5t11 54.5q0 49 -20 84t-55.5 58t-83 34t-101.5 11q-41 0 -79.5 -8t-72 -22.5t-62 -35t-47.5 -45.5l79 -93q11 16 29 31.5t41.5 27.5t50.5 19t55 7q53 0 87.5 -20.5t34.5 -62.5q0 -30 -16 -48
t-44.5 -27.5t-68 -11.5t-86.5 0v-116q40 2 80.5 1.5t72.5 -9t52.5 -28.5t20.5 -56q0 -17 -8 -33.5t-23.5 -29.5t-39.5 -21t-56 -8q-63 0 -110.5 25t-78.5 67l-81 -98q47 -54 112.5 -83t157.5 -29q64 0 114 14t85 40t53.5 63t18.5 82z" />
    <glyph glyph-name="four" unicode="4" 
d="M600 142v117h-87v408h-202l-273 -420v-105h331v-142h145v142h86zM369 259h-181l181 281v-281z" />
    <glyph glyph-name="five" unicode="5" 
d="M588 212q0 52 -17 92.5t-47 69t-70.5 43.5t-86.5 15q-54 0 -95 -17.5t-60 -41.5v175h330v119h-473v-370l105 -38q21 31 57 47t77 16q63 0 99.5 -27.5t36.5 -85.5q0 -21 -8 -40.5t-24.5 -35.5t-40.5 -25.5t-57 -9.5q-58 0 -105 27.5t-76 64.5l-86 -98q38 -49 107 -80.5
t163 -31.5q61 0 111.5 17.5t85.5 48.5t54.5 73.5t19.5 92.5z" />
    <glyph glyph-name="six" unicode="6" 
d="M600 214q0 52 -19 94t-51 71t-74 45t-89 16q-66 0 -110.5 -24t-70.5 -64q0 44 11.5 83t34 68.5t55.5 46.5t75 17q40 0 74 -14t57 -40l72 103q-38 33 -90.5 52t-112.5 19q-78 0 -138 -28t-101 -76.5t-62 -113t-21 -136.5t17 -136.5t52.5 -112.5t89.5 -76t129 -28
q53 0 102.5 16t87 46.5t60 74t22.5 97.5zM454 216q0 -21 -8.5 -42t-24.5 -37.5t-39.5 -26.5t-53.5 -10q-36 0 -61.5 13.5t-42 35.5t-25.5 50.5t-11 57.5q6 14 19 28t30 25t39 17.5t46 6.5q25 0 48.5 -7t42 -21t30 -36.5t11.5 -53.5z" />
    <glyph glyph-name="seven" unicode="7" 
d="M580 557v110h-530v-125h385l-297 -542h170z" />
    <glyph glyph-name="eight" unicode="8" horiz-adv-x="625" 
d="M585 174q0 25 -11.5 51.5t-31.5 50t-47.5 42t-59.5 26.5q30 7 55.5 23t44 37.5t29.5 47t11 51.5q0 46 -21 80.5t-56.5 57.5t-83 34.5t-99.5 11.5q-53 0 -100 -11.5t-82.5 -34.5t-56.5 -57.5t-21 -80.5q0 -26 10.5 -51.5t29.5 -47t44.5 -37.5t55.5 -23q-32 -8 -59.5 -26.5
t-47.5 -42t-31.5 -50t-11.5 -51.5q0 -48 21.5 -84t58.5 -60.5t86 -37t104 -12.5t104 12.5t86 37t58.5 60.5t21.5 84zM431 482q0 -21 -14 -37.5t-32.5 -27.5t-38 -17.5t-31.5 -9.5q-11 3 -30.5 9.5t-38.5 17.5t-33 27.5t-14 37.5q0 24 10 41t26 28t37 16t43 5t43 -5t37 -16
t26 -28t10 -41zM441 190q0 -42 -33.5 -68.5t-92.5 -26.5t-92.5 26.5t-33.5 68.5q0 22 14.5 40.5t35 31.5t41.5 21t35 10q13 -2 34.5 -10t42 -21t35 -31.5t14.5 -40.5z" />
    <glyph glyph-name="nine" unicode="9" 
d="M591 333q0 72 -17 136.5t-52 113t-89.5 76.5t-129.5 28q-53 0 -102 -16t-86.5 -46.5t-60 -74t-22.5 -98.5q0 -52 18.5 -93.5t50.5 -71t74.5 -45t89.5 -15.5q66 0 110.5 24t70.5 63q0 -44 -12 -82.5t-34.5 -68t-55 -46.5t-74.5 -17q-40 0 -74 14t-57 39l-72 -102
q38 -33 90.5 -52t112.5 -19q78 0 137.5 28t100.5 76t62 112.5t21 136.5zM444 411q-6 -14 -19 -28t-30 -25t-39 -18t-46 -7q-25 0 -48.5 7t-42 21t-30 36.5t-11.5 54.5q0 21 8.5 41.5t24 37t39 26.5t53.5 10q36 0 62 -13.5t42.5 -35.5t25.5 -50t11 -57z" />
    <glyph glyph-name="colon" unicode=":" horiz-adv-x="250" 
d="M211 405q0 35 -25 60t-61 25q-35 0 -60 -25t-25 -60q0 -18 6.5 -33.5t18 -27t27 -18.5t33.5 -7t33.5 7t27.5 18.5t18.5 27t6.5 33.5zM211 79q0 18 -7 33.5t-18.5 27t-27 18.5t-33.5 7t-33.5 -7t-27 -18.5t-18 -27t-6.5 -33.5t6.5 -33.5t18 -27t27 -18.5t33.5 -7t33.5 7
t27 18.5t18.5 27t7 33.5z" />
    <glyph glyph-name="semicolon" unicode=";" horiz-adv-x="250" 
d="M211 405q0 35 -25 60t-61 25q-35 0 -60 -25t-25 -60q0 -18 6.5 -33.5t18 -27t27 -18.5t33.5 -7t33.5 7t27.5 18.5t18.5 27t6.5 33.5zM211 67q0 27 -8 45.5t-20.5 30.5t-28 17t-29.5 5q-18 0 -33.5 -7t-27 -18.5t-18 -27t-6.5 -33.5q0 -26 15 -46.5t35 -28.5q8 -3 19 -4.5
t19 0.5q-2 -12 -10 -24t-19 -23.5t-22.5 -22t-21.5 -18.5l58 -46q48 43 73 93t25 109v-1z" />
    <glyph glyph-name="less" unicode="&#x3c;" horiz-adv-x="511" 
d="M482 -13v94l-367 160l367 161v95l-453 -209v-92z" />
    <glyph glyph-name="equal" unicode="=" horiz-adv-x="511" 
d="M482 309v80h-453v-80h453zM482 101v80h-453v-80h453z" />
    <glyph glyph-name="greater" unicode="&#x3e;" horiz-adv-x="511" 
d="M482 196v92l-453 209v-95l367 -161l-367 -160v-94z" />
    <glyph glyph-name="question" unicode="?" horiz-adv-x="455" 
d="M429 519q0 37 -16 68t-44 53t-66.5 34.5t-83.5 12.5q-38 0 -68 -6.5t-55 -18t-45.5 -27t-39.5 -32.5l77 -89q24 29 52 45t72 16q38 0 63 -16t25 -45q0 -14 -4 -25t-14.5 -22.5t-29 -24.5t-46.5 -30q-26 -16 -43.5 -42t-21.5 -56t6.5 -60.5t39.5 -55.5l96 60
q-11 9 -14.5 22t-1 26.5t11.5 26t24 20.5q30 16 53 32t39.5 35.5t25 43t8.5 55.5zM300 79q0 18 -7 33.5t-18.5 27t-27 18.5t-33.5 7t-33.5 -7t-27 -18.5t-18.5 -27t-7 -33.5t7 -33.5t18.5 -27t27 -18.5t33.5 -7t33.5 7t27 18.5t18.5 27t7 33.5z" />
    <glyph glyph-name="at" unicode="@" horiz-adv-x="782" 
d="M746 334q5 73 -16 137.5t-62.5 112.5t-102 75.5t-133.5 27.5t-141 -27.5t-121.5 -75.5t-89 -112.5t-43.5 -137.5q-9 -74 12 -138.5t63.5 -112.5t104 -75.5t135.5 -27.5q56 0 108.5 16.5t99.5 46.5l-24 34q-41 -26 -86 -40t-93 -14q-65 0 -118.5 24.5t-91 66.5t-55.5 98.5
t-10 121.5q7 64 38 120.5t78 98.5t106 66.5t124 24.5q64 0 117.5 -24.5t90.5 -66.5t55 -98.5t11 -120.5q-6 -52 -20 -80t-29 -40.5t-28 -14.5t-17 -2q-16 0 -28.5 15.5t-6.5 45.5l59 278h-114l-7 -34q-11 32 -41 48.5t-73 16.5q-40 0 -78.5 -15.5t-71 -44.5t-56 -70.5
t-34.5 -93.5q-11 -53 -5 -94t26 -70t52 -44t71 -15q44 0 81 16t62 48q5 -19 16 -32.5t26 -22t32 -12.5t35 -4q34 0 67 18t60 48t45 70t21 85zM496 431l-37 -176q-17 -20 -45 -32t-58 -12q-49 0 -71.5 37.5t-10.5 94.5q6 29 19.5 53t32 41.5t41 27.5t46.5 10q29 0 52 -11.5
t31 -32.5z" />
    <glyph glyph-name="A" unicode="A" horiz-adv-x="702" 
d="M699 0l-265 667h-169l-264 -667h166l48 136h268l49 -136h167zM446 244h-193l97 271z" />
    <glyph glyph-name="B" unicode="B" horiz-adv-x="662" 
d="M620 186q0 66 -33.5 106.5t-85.5 51.5q46 14 76 50.5t30 96.5q0 36 -13.5 68t-39 56t-62.5 38t-83 14h-347v-667h361q45 0 81.5 14t62 39t39.5 59t14 74zM459 473q0 -37 -23.5 -58.5t-56.5 -21.5h-173v161h173q33 0 56.5 -21.5t23.5 -59.5zM473 201q-1 -42 -26 -65
t-57 -23l-184 -1v174h184q32 0 57.5 -21.5t24.5 -63.5h1z" />
    <glyph glyph-name="C" unicode="C" horiz-adv-x="698" 
d="M681 129l-115 69q-26 -45 -68 -71.5t-96 -26.5q-44 0 -83 16t-68 46.5t-45.5 73.5t-16.5 97t16.5 97.5t45.5 73.5t68 46.5t83 16.5q54 0 95.5 -26.5t67.5 -71.5l115 70q-19 30 -45 57t-60 47t-77 32t-96 12q-76 0 -141.5 -26.5t-114 -73.5t-76.5 -112t-28 -142t28 -141.5
t76.5 -111.5t114 -73.5t141.5 -26.5q53 0 96.5 12t77.5 32t60 47.5t45 57.5z" />
    <glyph glyph-name="D" unicode="D" horiz-adv-x="721" 
d="M683 333q0 75 -26.5 136.5t-73.5 105.5t-111.5 68t-140.5 24h-269v-667h269q76 0 140.5 24t111.5 68t73.5 105t26.5 136zM535 333q0 -44 -14.5 -83.5t-41.5 -68.5t-64.5 -46t-83.5 -17h-125v431h125q47 0 85 -16.5t64.5 -46t40.5 -69t14 -84.5z" />
    <glyph glyph-name="E" unicode="E" horiz-adv-x="580" 
d="M540 0v119h-334v164h327v113h-327v153h334v118h-478v-667h478z" />
    <glyph glyph-name="F" unicode="F" horiz-adv-x="567" 
d="M540 549v118h-478v-667h144v283h327v113h-327v153h334z" />
    <glyph glyph-name="G" unicode="G" horiz-adv-x="726" 
d="M687 103v255h-305v-110h161v-100q-25 -21 -64 -34.5t-78 -13.5q-44 0 -82.5 16t-67 46.5t-45 73.5t-16.5 97t16.5 97.5t45 73.5t67 46.5t82.5 16.5q59 0 103.5 -29.5t68.5 -68.5l114 70q-18 30 -45 57t-62.5 47t-80 32t-98.5 12q-75 0 -140 -26t-114 -72.5t-77 -111.5
t-28 -144q0 -78 28 -143t77 -111.5t114 -72.5t140 -26q89 0 162 32.5t124 90.5z" />
    <glyph glyph-name="H" unicode="H" horiz-adv-x="727" 
d="M666 0v667h-144v-261h-316v261h-144v-667h144v280h316v-280h144z" />
    <glyph glyph-name="I" unicode="I" horiz-adv-x="267" 
d="M206 0v667h-144v-667h144z" />
    <glyph glyph-name="J" unicode="J" horiz-adv-x="484" 
d="M424 211v456h-144v-457q0 -48 -30.5 -79t-79.5 -31q-33 0 -60.5 13.5t-44.5 36.5l-64 -102q35 -34 82.5 -51t98.5 -17q54 0 98.5 15.5t76.5 45t49.5 72.5t17.5 98z" />
    <glyph glyph-name="K" unicode="K" horiz-adv-x="640" 
d="M638 0l-287 353l269 314h-184l-230 -291v291h-144v-667h144v201l51 60l198 -261h183z" />
    <glyph glyph-name="L" unicode="L" horiz-adv-x="508" 
d="M488 0v118h-282v549h-144v-667h426z" />
    <glyph glyph-name="M" unicode="M" horiz-adv-x="846" 
d="M784 0v667h-199l-163 -418l-160 418h-200v-667h144v476l188 -476h57l190 476v-476h143z" />
    <glyph glyph-name="N" unicode="N" horiz-adv-x="727" 
d="M663 0v667h-144v-434l-308 434h-149v-667h143v454l322 -454h136z" />
    <glyph glyph-name="O" unicode="O" horiz-adv-x="786" 
d="M745 333q0 75 -26.5 139.5t-74 112.5t-112 75t-139.5 27t-139.5 -27t-111.5 -75t-73.5 -112.5t-26.5 -139.5t26.5 -139.5t73.5 -112t111.5 -74.5t139.5 -27t139.5 27t112 74.5t74 112t26.5 139.5zM597 333q0 -48 -14 -90.5t-40 -74t-64 -50t-86 -18.5t-86 18.5t-64 50
t-40 74t-14 90.5t14 91t40 74.5t64 50t86 18.5t86 -18.5t64 -50t40 -74.5t14 -91z" />
    <glyph glyph-name="P" unicode="P" horiz-adv-x="621" 
d="M600 459q0 44 -16.5 82t-46.5 66t-71.5 44t-90.5 16h-313v-667h144v252h169q52 0 93.5 16t71 43.5t45 65.5t15.5 82zM452 459q0 -21 -8 -39t-21 -30.5t-29 -20t-32 -7.5h-156v193h156q16 0 32 -7t29 -20t21 -30.5t8 -38.5z" />
    <glyph glyph-name="Q" unicode="Q" horiz-adv-x="786" 
d="M745 333q0 75 -26.5 139.5t-74 112.5t-112 75t-139.5 27t-139.5 -27t-111.5 -75t-73.5 -112.5t-26.5 -139.5t26.5 -139.5t73.5 -112t111.5 -74.5t139.5 -27q112 0 195 57l69 -70l75 81l-65 60q38 46 58 103t20 122zM597 333q0 -35 -8.5 -68.5t-25.5 -59.5l-73 71l-75 -81
l76 -69q-20 -13 -45.5 -19.5t-52.5 -6.5q-48 0 -86 18.5t-64 50t-40 74t-14 90.5t14 91t40 74.5t64 50t86 18.5t86 -18.5t64 -50t40 -74.5t14 -91z" />
    <glyph glyph-name="R" unicode="R" horiz-adv-x="641" 
d="M605 0l-157 265q13 4 38 15t50.5 34t44.5 59t19 90q0 44 -16.5 81.5t-46.5 64.5t-71.5 42.5t-90.5 15.5h-313v-667h144v252h94l137 -252h168zM453 459q0 -21 -7.5 -39t-20.5 -30.5t-29 -20t-33 -7.5q-3 -3 -27.5 -3.5t-53.5 0.5t-52.5 2l-23.5 1v193h157q17 0 33 -7.5
t29 -20.5t20.5 -30.5t7.5 -37.5z" />
    <glyph glyph-name="S" unicode="S" horiz-adv-x="628" 
d="M587 195q0 51 -18 87t-51.5 61.5t-80.5 41t-105 25.5q-69 12 -100.5 30t-31.5 51q0 22 9.5 37.5t25.5 25.5t36.5 15t42.5 5q24 0 48.5 -6t47 -16t41.5 -23.5t32 -28.5l83 87q-17 18 -41 36t-56 32.5t-73.5 23t-93.5 8.5q-57 0 -105 -17t-82.5 -45t-53.5 -65.5t-19 -77.5
q0 -35 11 -67.5t38 -59.5t72.5 -48t114.5 -32q78 -13 115 -36t37 -59q0 -22 -10.5 -38.5t-28.5 -27t-42.5 -16t-51.5 -5.5q-32 0 -61.5 10.5t-54 25.5t-42 31.5t-25.5 28.5l-85 -97q17 -18 41.5 -38t58 -36.5t76.5 -27t97 -10.5q58 0 109.5 13.5t90.5 40t62 67t23 94.5z" />
    <glyph glyph-name="T" unicode="T" horiz-adv-x="541" 
d="M522 549v118h-501v-118h178v-549h144v549h179z" />
    <glyph glyph-name="U" unicode="U" horiz-adv-x="731" 
d="M669 256v411h-147v-416q0 -29 -11.5 -56.5t-32 -48.5t-49.5 -33.5t-64 -12.5t-63.5 12.5t-49 33.5t-32 48.5t-11.5 56.5v416h-147v-411q0 -56 21.5 -106.5t61 -88t95.5 -59.5t125 -22t125.5 22t96 59.5t61 88t21.5 106.5z" />
    <glyph glyph-name="V" unicode="V" horiz-adv-x="699" 
d="M699 667h-167l-182 -507l-183 507h-166l264 -667h169z" />
    <glyph glyph-name="W" unicode="W" horiz-adv-x="921" 
d="M919 667h-162l-114 -475l-123 475h-121l-123 -475l-115 475h-160l190 -667h153l116 445l115 -445h153z" />
    <glyph glyph-name="X" unicode="X" horiz-adv-x="688" 
d="M686 0l-247 343l232 324h-179l-149 -223l-148 223h-179l231 -325l-246 -342h179l163 240l164 -240h179z" />
    <glyph glyph-name="Y" unicode="Y" horiz-adv-x="665" 
d="M663 667h-170l-161 -262l-160 262h-171l259 -392v-275h143v275z" />
    <glyph glyph-name="Z" unicode="Z" horiz-adv-x="610" 
d="M570 0v118h-354l347 431v118h-521v-118h339l-339 -427v-122h528z" />
    <glyph glyph-name="bracketleft" unicode="[" horiz-adv-x="273" 
d="M256 -100v84h-120v700h120v84h-210v-868h210z" />
    <glyph glyph-name="backslash" unicode="\" horiz-adv-x="327" 
d="M327 -20l-237 707h-90l237 -707h90z" />
    <glyph glyph-name="bracketright" unicode="]" horiz-adv-x="273" 
d="M228 -100l-1 868h-210l1 -84h120l-1 -700h-120l1 -84h210z" />
    <glyph glyph-name="asciicircum" unicode="^" horiz-adv-x="440" 
d="M420 333l-154 334h-91l-155 -334h95l105 248l105 -248h95z" />
    <glyph glyph-name="underscore" unicode="_" 
d="M635 -95v55h-638v-55h638z" />
    <glyph glyph-name="grave" unicode="`" horiz-adv-x="235" 
d="M235 553l-127 147h-108l122 -147h113z" />
    <glyph glyph-name="a" unicode="a" horiz-adv-x="564" 
d="M287 498q-23 0 -50.5 -3t-57.5 -11.5t-59.5 -24.5t-54.5 -42l56 -75q32 32 71 47.5t78 15.5q45 0 75 -25.5t30 -61.5v-62q-8 15 -23.5 26t-34.5 19t-39.5 12t-39.5 4q-33 0 -68.5 -8t-64 -27t-47 -50.5t-18.5 -79.5q0 -45 18.5 -76t47 -51t64 -29t68.5 -9q19 0 39.5 4.5
t39.5 12.5t34.5 20t23.5 27v-51h130v315q0 47 -17 81.5t-47 57t-69.5 33.5t-84.5 11zM375 120q-13 -23 -42.5 -35.5t-57.5 -12.5q-15 0 -33.5 4t-34 13.5t-26.5 25.5t-11 40t11 40t26.5 25.5t34 13.5t33.5 4q28 0 57.5 -12t42.5 -35v-71z" />
    <glyph glyph-name="b" unicode="b" horiz-adv-x="594" 
d="M555 242q0 60 -17 107.5t-46.5 80t-69.5 50t-86 17.5q-50 0 -88.5 -19t-58.5 -55v244h-130v-667h130v60q20 -36 58.5 -54.5t88.5 -18.5q46 0 86 17.5t69.5 50t46.5 80t17 107.5zM421 242q0 -33 -9.5 -60.5t-26 -48t-39.5 -31.5t-51 -11q-34 0 -62.5 13.5t-43.5 37.5v200
q15 23 43.5 36.5t62.5 13.5q28 0 51 -11t39.5 -31t26 -47.5t9.5 -60.5z" />
    <glyph glyph-name="c" unicode="c" horiz-adv-x="516" 
d="M495 75l-84 76q-22 -29 -48.5 -44t-60.5 -15q-28 0 -51.5 11t-41 30.5t-27 47.5t-9.5 61t9.5 60.5t27 47.5t41 31t51.5 11q34 0 60.5 -15.5t48.5 -44.5l84 77q-37 43 -85.5 65.5t-112.5 22.5q-55 0 -102 -19t-81.5 -53t-54 -81t-19.5 -102t19.5 -102t54 -81t81.5 -53
t102 -19q64 0 112.5 22.5t85.5 65.5z" />
    <glyph glyph-name="d" unicode="d" horiz-adv-x="594" 
d="M535 0v667h-130v-244q-20 36 -58.5 55t-88.5 19q-45 0 -85 -18t-69.5 -51t-46.5 -80t-17 -106q0 -60 17 -107.5t47 -80t69.5 -50t84.5 -17.5q50 0 88.5 19t58.5 54v-60h130zM405 142q-15 -24 -43.5 -37.5t-62.5 -13.5q-28 0 -51 11t-39.5 31.5t-26 48t-9.5 60.5t9.5 60.5
t26 47.5t39.5 31t51 11q34 0 62.5 -13.5t43.5 -36.5v-200z" />
    <glyph glyph-name="e" unicode="e" horiz-adv-x="581" 
d="M542 200v42q0 54 -19 101t-52 81t-78.5 53.5t-99.5 19.5q-56 0 -102 -20t-80 -55t-52.5 -81.5t-18.5 -98.5q0 -56 20 -103t55 -81t82.5 -52.5t102.5 -18.5q22 0 49 3.5t55 12.5t54.5 24.5t48.5 38.5l-65 75q-13 -13 -29.5 -22.5t-34.5 -15.5t-35.5 -9t-32.5 -3
q-56 0 -93 30.5t-47 78.5h372zM423 283h-255q3 23 13 44t25.5 37.5t37.5 26t51 9.5q30 0 53 -10t38.5 -26.5t24.5 -37.5t12 -43z" />
    <glyph glyph-name="f" unicode="f" horiz-adv-x="280" 
d="M375 634q-43 49 -135 49q-36 0 -68 -11.5t-56 -32.5t-37.5 -50.5t-13.5 -65.5v-40h-80v-96h80v-387h130v387h99v96h-99v39q0 29 18 45.5t44 16.5q42 0 63 -29z" />
    <glyph glyph-name="g" unicode="g" horiz-adv-x="594" 
d="M535 37v446h-130v-60q-20 36 -58.5 55t-88.5 19q-45 0 -85 -16.5t-70 -48.5t-47 -78.5t-17 -105.5q0 -60 17.5 -106t47 -77.5t69.5 -48t85 -16.5q50 0 88.5 19t58.5 55v-60q0 -34 -12.5 -56.5t-31.5 -36t-42.5 -19t-45.5 -5.5q-39 0 -78 16.5t-69 50.5l-65 -88
q51 -47 107 -65t118 -18q45 0 89.5 11.5t80 39.5t57.5 75t22 118zM405 155q-15 -23 -43.5 -37t-62.5 -14q-57 0 -91.5 39t-34.5 105t34.5 105t91.5 39q34 0 62.5 -13.5t43.5 -36.5v-187z" />
    <glyph glyph-name="h" unicode="h" horiz-adv-x="575" 
d="M516 0v330q0 75 -42 121t-121 46q-32 0 -57.5 -6.5t-45.5 -16.5t-35 -22.5t-26 -24.5v240h-130v-667h130v333q20 24 45 39.5t63 15.5t63.5 -22t25.5 -70v-296h130z" />
    <glyph glyph-name="i" unicode="i" horiz-adv-x="248" 
d="M201 619q0 32 -22.5 54.5t-54.5 22.5t-54.5 -22.5t-22.5 -54.5t22.5 -54.5t54.5 -22.5t54.5 22.5t22.5 54.5zM189 0v483h-130v-483h130z" />
    <glyph glyph-name="j" unicode="j" horiz-adv-x="248" 
d="M201 619q0 32 -22.5 54.5t-54.5 22.5t-54.5 -22.5t-22.5 -54.5t22.5 -54.5t54.5 -22.5t54.5 22.5t22.5 54.5zM189 -29v512h-130v-506q0 -33 -17 -51t-49 -18q-23 0 -40 6t-31 18l-48 -104q26 -20 54 -27.5t72 -7.5q48 0 83.5 14t59 38t35 56.5t11.5 69.5z" />
    <glyph glyph-name="k" unicode="k" horiz-adv-x="530" 
d="M530 0l-202 269l196 214h-171l-164 -199v383h-130v-667h130v121l54 58l119 -179h168z" />
    <glyph glyph-name="l" unicode="l" horiz-adv-x="248" 
d="M189 0v667h-130v-667h130z" />
    <glyph glyph-name="m" unicode="m" horiz-adv-x="845" 
d="M786 0v333q0 81 -39 122.5t-110 41.5q-29 0 -54 -8t-45 -20.5t-35.5 -28t-26.5 -31.5q-31 88 -137 88q-29 0 -53 -7.5t-43 -18t-32.5 -22.5t-21.5 -22v56h-130v-483h130v333q7 9 16.5 18.5t21.5 17.5t26 13.5t31 5.5q38 0 55.5 -22t17.5 -63v-303h130v333q7 9 16.5 18.5
t21.5 17.5t26 13.5t31 5.5q38 0 56 -22t18 -63v-303h130z" />
    <glyph glyph-name="n" unicode="n" horiz-adv-x="575" 
d="M516 0v330q0 75 -42 121t-121 46q-32 0 -57.5 -6.5t-45.5 -16.5t-35 -22.5t-26 -24.5v56h-130v-483h130v333q20 24 45 39.5t63 15.5t63.5 -22t25.5 -70v-296h130z" />
    <glyph glyph-name="o" unicode="o" horiz-adv-x="595" 
d="M556 242q0 52 -18.5 98t-52 81t-81.5 55.5t-107 20.5t-106 -20.5t-81 -55.5t-52 -81t-18 -98t18 -98t52 -81t81.5 -55.5t106.5 -20.5t106.5 20.5t81.5 55.5t52 81t18 98zM422 242q0 -67 -33 -108.5t-92 -41.5q-58 0 -90.5 41.5t-32.5 108.5q0 66 32.5 108t91.5 42
q58 0 91 -42t33 -108z" />
    <glyph glyph-name="p" unicode="p" horiz-adv-x="594" 
d="M555 242q0 60 -17 107.5t-46.5 80t-69.5 50t-86 17.5q-50 0 -88.5 -19t-58.5 -55v60h-130v-676h130v253q20 -36 58.5 -54.5t88.5 -18.5q46 0 86 17.5t69.5 50t46.5 80t17 107.5zM421 242q0 -33 -9.5 -60.5t-26 -48t-39.5 -31.5t-51 -11q-34 0 -62.5 13.5t-43.5 37.5v200
q15 23 43.5 36.5t62.5 13.5q28 0 51 -11t39.5 -31t26 -47.5t9.5 -60.5z" />
    <glyph glyph-name="q" unicode="q" horiz-adv-x="594" 
d="M535 -193v676h-130v-60q-20 36 -58.5 55t-88.5 19q-46 0 -85.5 -17.5t-69 -50t-46.5 -80t-17 -107.5t17 -107.5t46.5 -80t69 -50t85.5 -17.5q50 0 88.5 19t58.5 54v-253h130zM405 142q-15 -24 -43.5 -37.5t-62.5 -13.5q-28 0 -51 11t-39.5 31.5t-26 48t-9.5 60.5
t9.5 60.5t26 47.5t39.5 31t51 11q34 0 62.5 -13.5t43.5 -36.5v-200z" />
    <glyph glyph-name="r" unicode="r" horiz-adv-x="362" 
d="M345 373v124q-53 0 -93 -22t-63 -48v56h-130v-483h130v333q13 15 33 25t42 14.5t43 4.5q22 0 38 -4z" />
    <glyph glyph-name="s" unicode="s" horiz-adv-x="497" 
d="M457 144q0 71 -46.5 108.5t-142.5 50.5q-54 8 -77.5 19t-23.5 36q0 26 25.5 36.5t59.5 10.5q39 0 74.5 -16t50.5 -36l59 75q-27 26 -75 47.5t-120 21.5q-44 0 -81 -11t-64 -30.5t-42.5 -46.5t-15.5 -59q0 -70 45 -107t134 -48q51 -7 78.5 -20t27.5 -38q0 -27 -24.5 -40.5
t-63.5 -13.5q-22 0 -43.5 6.5t-41 17t-35 22.5t-24.5 23l-67 -82q16 -15 36.5 -30t47.5 -27t60 -19t75 -7q49 0 88.5 11t67.5 31.5t43 49.5t15 65z" />
    <glyph glyph-name="t" unicode="t" horiz-adv-x="342" 
d="M343 15l-39 95q-5 -6 -16 -12t-31 -6q-23 0 -34 16t-11 38v241h99v96h-99v132h-130v-132h-80v-96h80v-260q0 -31 8 -57t26 -45.5t45.5 -30.5t66.5 -11q48 0 73 9.5t42 22.5z" />
    <glyph glyph-name="u" unicode="u" horiz-adv-x="575" 
d="M516 0v483h-130v-333q-20 -23 -45 -39t-63 -16t-63.5 22t-25.5 70v296h-130v-330q0 -75 42 -120.5t121 -45.5q32 0 57.5 6.5t45.5 16.5t35 22.5t26 24.5v-57h130z" />
    <glyph glyph-name="v" unicode="v" horiz-adv-x="531" 
d="M532 483h-140l-126 -356l-126 356h-140l195 -483h142z" />
    <glyph glyph-name="w" unicode="w" horiz-adv-x="787" 
d="M783 483h-136l-89 -336l-109 336h-111l-110 -336l-89 336h-135l148 -483h138l103 320l103 -320h139z" />
    <glyph glyph-name="x" unicode="x" horiz-adv-x="535" 
d="M524 0l-176 248l165 235h-147l-98 -158l-99 158h-147l165 -235l-175 -248h146l110 173l109 -173h147z" />
    <glyph glyph-name="y" unicode="y" horiz-adv-x="531" 
d="M532 483h-140l-126 -356l-126 356h-140l200 -495l-4 -9t-9 -20q-11 -26 -34.5 -39t-74.5 -12v-115q41 0 75 4t61.5 17.5t50 39.5t40.5 70z" />
    <glyph glyph-name="z" unicode="z" horiz-adv-x="479" 
d="M441 0v97h-255l251 290v96h-397v-96h245l-245 -285v-102h401z" />
    <glyph glyph-name="braceleft" unicode="{" horiz-adv-x="284" 
d="M266 -100v84h-60q-25 0 -42.5 19t-17.5 52v188q0 32 -10.5 56t-35.5 35q25 11 35.5 35t10.5 56v188q0 33 17.5 52t42.5 19h60v84h-61q-32 0 -59.5 -12t-47.5 -33t-31 -49t-11 -61v-178q0 -28 -12.5 -46t-38.5 -18v-74q26 0 38.5 -18t12.5 -46v-178q0 -33 11 -61t31 -49
t47.5 -33t59.5 -12h61z" />
    <glyph glyph-name="bar" unicode="|" horiz-adv-x="213" 
d="M152 -20v707h-90v-707h90z" />
    <glyph glyph-name="braceright" unicode="}" horiz-adv-x="284" 
d="M279 297v74q-26 0 -39 18t-12 46l-0.5 22t-0.5 51v59v46q0 33 -11 61t-31 49t-47 33t-60 12h-60l-1 -84h61q25 0 42 -19t17 -52v-44q0 -27 0.5 -56t0.5 -54v-34q0 -32 10.5 -56t35.5 -35q-25 -11 -35.5 -35t-10.5 -56v-35q0 -24 -0.5 -52.5t-0.5 -56.5v-44q0 -33 -17 -52
t-43 -19h-59l-1 -84h61q33 0 60 12t47 33t31 49t11 61v46v59t0.5 51l0.5 22q-1 28 12 46t39 18z" />
    <glyph glyph-name="asciitilde" unicode="~" horiz-adv-x="582" 
d="M556 648l-76 19q-5 -41 -15.5 -72t-22.5 -51t-25 -30t-23 -10q-22 0 -37.5 19t-39.5 55q-11 17 -23 33.5t-28 30t-36.5 22t-47.5 8.5q-30 0 -56.5 -21t-47.5 -53.5t-35 -72t-17 -76.5l77 -18q5 41 15.5 71.5t22.5 50.5t24.5 30t23.5 10q21 0 37 -19.5t39 -54.5
q11 -17 23.5 -33.5t28.5 -30t36.5 -21.5t47.5 -8q30 0 56.5 21t47.5 53t34.5 71.5t16.5 76.5z" />
    <glyph glyph-name="exclamdown" unicode="&#xa1;" horiz-adv-x="250" 
d="M45 -179l24 450h112l23 -450h-159zM39 408q0 18 7 33.5t18.5 27.5t27 18.5t33.5 6.5t33.5 -6.5t27 -18.5t18.5 -27.5t7 -33.5t-7 -33.5t-18.5 -27t-27 -18t-33.5 -6.5t-33.5 6.5t-27 18t-18.5 27t-7 33.5z" />
    <glyph glyph-name="cent" unicode="&#xa2;" horiz-adv-x="516" 
d="M495 74l-75 75q-33 -43 -79 -58v301q46 -15 79 -58l75 75q-60 71 -152 84v76h-90v-76q-47 -7 -86 -29t-67.5 -55t-44 -75.5t-15.5 -91.5q0 -50 15.5 -92.5t44 -75.5t67.5 -55t86 -29v-91h90v91q92 15 152 84zM255 391v-298q-44 12 -70 52t-26 97t26 96.5t70 52.5z" />
    <glyph glyph-name="sterling" unicode="&#xa3;" horiz-adv-x="540" 
d="M533 36l-60 109q-11 -17 -34 -27.5t-46 -10.5q-17 0 -31.5 5.5t-29 11.5t-31 11.5t-38.5 5.5q-14 0 -24 -1.5t-25 -6.5q20 17 34 36t19 53q0 5 0.5 10t1.5 10h120v81h-126q-7 21 -17 36.5t-19.5 32.5t-16 38t-6.5 52q0 23 9.5 39.5t23.5 27.5t31.5 16.5t33.5 5.5
q34 0 58.5 -13t37.5 -44l113 58q-29 62 -84 86.5t-137 24.5q-42 0 -85.5 -15.5t-78.5 -43.5t-57.5 -67t-22.5 -85q0 -27 5.5 -47.5t14.5 -37.5t19.5 -32.5t20.5 -31.5h-84v-81h119q1 -7 1.5 -13.5t0.5 -14.5q0 -39 -24.5 -66.5t-77.5 -50.5l50 -104q22 14 49.5 26t62.5 12
q22 0 42 -7t41 -15.5t45.5 -15.5t56.5 -7q45 0 82 12t63 38z" />
    <glyph glyph-name="currency" unicode="&#xa4;" horiz-adv-x="504" 
d="M488 149l-58 58q19 27 29.5 59t10.5 67t-10.5 67t-29.5 59l58 59l-53 52l-58 -58q-55 40 -126 40t-126 -40l-58 58l-53 -52l58 -59q-19 -27 -29.5 -59t-10.5 -67t10.5 -67t29.5 -59l-58 -58l53 -53l58 59q27 -20 59 -30.5t67 -10.5t67 10.5t59 30.5l58 -59zM392 333
q0 -29 -11 -54.5t-30 -45t-45 -30.5t-55 -11t-55 11t-45 30.5t-30 45t-11 54.5t11 55t30 45t45 30t55 11t55 -11t45 -30t30 -45t11 -55z" />
    <glyph glyph-name="yen" unicode="&#xa5;" horiz-adv-x="665" 
d="M663 667h-170l-160 -262l-161 262h-171l173 -261h-92v-80h145l33 -51v-40h-178v-80h178v-155h143v155h184v80h-184v40l34 51h150v80h-98z" />
    <glyph glyph-name="brokenbar" unicode="&#xa6;" horiz-adv-x="213" 
d="M152 369v318h-90v-318h90zM152 -20v318h-90v-318h90z" />
    <glyph glyph-name="section" unicode="&#xa7;" horiz-adv-x="539" 
d="M525 274q0 60 -22 100t-56 65t-75.5 38t-80.5 20q-54 9 -77.5 19t-23.5 35q0 26 25.5 36.5t59.5 10.5q39 0 74 -16t51 -36l58 75q-27 27 -75 48t-119 21q-44 0 -81 -11t-64 -30.5t-42.5 -46.5t-15.5 -59q0 -45 19 -76.5t62 -51.5q-26 -11 -49.5 -28t-41 -40t-27.5 -52
t-10 -63q0 -48 20.5 -86.5t53 -67t72.5 -46.5t79 -25q52 -9 79.5 -21t27.5 -37q0 -27 -24.5 -40t-64.5 -13q-21 0 -43 6.5t-41 16.5t-34.5 22t-24.5 23l-68 -82q16 -15 37 -30t47.5 -27t60 -19t75.5 -7q99 0 156.5 42.5t57.5 115.5q0 46 -20 77.5t-60 51.5q23 13 45.5 32
t40 42.5t28.5 52t11 61.5zM408 239q0 -46 -27.5 -78t-66.5 -49q-4 1 -11 2t-12 2q-38 5 -67.5 18t-50.5 31t-32 39t-11 44q0 21 4.5 42.5t16.5 40.5t32 34.5t51 23.5l5 -1q78 -16 123.5 -51t45.5 -98z" />
    <glyph glyph-name="dieresis" unicode="&#xa8;" horiz-adv-x="351" 
d="M342 644q0 27 -19 46.5t-47 19.5t-47 -19.5t-19 -46.5q0 -28 19 -47.5t47 -19.5t47 19.5t19 47.5zM141 644q0 27 -19 46.5t-47 19.5t-47 -19.5t-19 -46.5q0 -28 19 -47.5t47 -19.5t47 19.5t19 47.5z" />
    <glyph glyph-name="copyright" unicode="&#xa9;" horiz-adv-x="778" 
d="M743 333q0 73 -28 137.5t-76 112.5t-112.5 76t-137.5 28t-137.5 -28t-112.5 -76t-76 -112.5t-28 -137.5t28 -137.5t76 -112.5t112.5 -76t137.5 -28t137.5 28t112.5 76t76 112.5t28 137.5zM700 333q0 -64 -24.5 -120.5t-66.5 -98.5t-99 -66.5t-121 -24.5t-120.5 24.5
t-98.5 66.5t-66.5 98.5t-24.5 120.5t24.5 120.5t66.5 98.5t98.5 66.5t120.5 24.5t121 -24.5t99 -66.5t66.5 -98.5t24.5 -120.5zM545 190l-39 37q-20 -27 -50 -43t-67 -16q-33 0 -61.5 12.5t-49.5 34t-33.5 52t-12.5 66.5t12.5 66.5t33.5 52.5t49.5 34.5t61.5 12.5
q36 0 66 -16t50 -43l38 38q-27 32 -66.5 50.5t-87.5 18.5q-44 0 -83 -16t-68 -44.5t-46 -67.5t-17 -86t17 -86.5t46 -68t68 -44.5t83 -16q48 0 88 20t68 52z" />
    <glyph glyph-name="ordfeminine" unicode="&#xaa;" horiz-adv-x="329" 
d="M297 308v40h-240v-40h240zM178 676q25 0 46.5 -6t38 -18t26 -31t9.5 -45v-173h-72v28q-9 -17 -31.5 -26t-43.5 -9q-18 0 -37.5 5t-35.5 15.5t-26 28t-10 41.5q0 26 10 43.5t26 28t35.5 15t37.5 4.5q21 0 43.5 -8.5t31.5 -25.5v35q0 20 -16.5 33.5t-40.5 13.5
q-22 0 -43.5 -8t-38.5 -26l-31 41q28 28 62.5 36t59.5 8zM226 469v39q-7 13 -23 19.5t-32 6.5q-8 0 -18 -2t-18.5 -7.5t-14.5 -14.5t-6 -22t6 -21.5t14.5 -14t18.5 -7.5t18 -2q16 0 32 6.5t23 19.5z" />
    <glyph glyph-name="guillemotleft" unicode="&#xab;" horiz-adv-x="479" 
d="M480 63l-160 180l160 177h-120l-160 -177l160 -180h120zM280 63l-160 180l160 177h-120l-160 -177l160 -180h120z" />
    <glyph glyph-name="logicalnot" unicode="&#xac;" horiz-adv-x="582" 
d="M584 286l-281 204l12 -129h-268v-150h268l-12 -130z" />
    <glyph glyph-name="minus" unicode="&#xad;" horiz-adv-x="511" 
d="M482 205v80h-453v-80h453z" />
    <glyph glyph-name="registered" unicode="&#xae;" horiz-adv-x="778" 
d="M743 333q0 73 -28 137.5t-76 112.5t-112.5 76t-137.5 28t-137.5 -28t-112.5 -76t-76 -112.5t-28 -137.5t28 -137.5t76 -112.5t112.5 -76t137.5 -28t137.5 28t112.5 76t76 112.5t28 137.5zM700 333q0 -64 -24.5 -120.5t-66.5 -98.5t-99 -66.5t-121 -24.5t-120.5 24.5
t-98.5 66.5t-66.5 98.5t-24.5 120.5t24.5 120.5t66.5 98.5t98.5 66.5t120.5 24.5t121 -24.5t99 -66.5t66.5 -98.5t24.5 -120.5zM553 131l-109 161q9 0 26 6t34.5 20.5t30 37.5t12.5 57q0 28 -10.5 50.5t-28.5 38.5t-41.5 25t-48.5 9h-166l1 -405h54v160h72l105 -160h69z
M490 413q0 -16 -6.5 -29.5t-16.5 -23t-23 -15t-26 -5.5h-111v148l111 -1q13 0 26 -5.5t23 -15t16.5 -23.5t6.5 -30z" />
    <glyph glyph-name="macron" unicode="&#xaf;" horiz-adv-x="396" 
d="M379 590v80h-363v-80h363z" />
    <glyph glyph-name="degree" unicode="&#xb0;" horiz-adv-x="305" 
d="M286 554q0 27 -10.5 51.5t-28.5 42.5t-42.5 28.5t-51.5 10.5t-51.5 -10.5t-42.5 -28.5t-28.5 -42.5t-10.5 -51.5t10.5 -51.5t28.5 -42.5t42.5 -28.5t51.5 -10.5t51.5 10.5t42.5 28.5t28.5 42.5t10.5 51.5zM219 554q0 -27 -19.5 -46.5t-46.5 -19.5t-46.5 19.5t-19.5 46.5
t19.5 46.5t46.5 19.5t46.5 -19.5t19.5 -46.5z" />
    <glyph glyph-name="plusminus" unicode="&#xb1;" horiz-adv-x="393" 
d="M330 0h-145v478l-97 -104l-88 89l206 204h124v-667z" />
    <glyph glyph-name="twosuperior" unicode="&#xb2;" horiz-adv-x="357" 
d="M330 284h-298v61l12 10.5t31.5 27.5t45.5 38.5t55 43.5q31 24 49.5 44.5t18.5 41.5q0 30 -20.5 44t-49.5 14q-32 0 -59 -14.5t-40 -33.5l-48 54q9 13 25.5 24t37 19.5t44 13t46.5 4.5q69 0 108 -31t39 -87q0 -20 -7 -38t-18.5 -33.5t-25 -28.5t-26.5 -23q-26 -19 -51 -39
t-38 -31t-15 -13h184v-68z" />
    <glyph glyph-name="threesuperior" unicode="&#xb3;" horiz-adv-x="346" 
d="M322 389q0 -52 -41 -82.5t-113 -30.5q-52 0 -89.5 16.5t-63.5 47.5l46 55q17 -23 44 -37.5t63 -14.5t54 16t18 36q0 21 -11.5 32t-29.5 16t-41 5t-46 -1v66q53 -3 87.5 6t34.5 43q0 24 -20 35.5t-49 11.5q-32 0 -59.5 -14.5t-40.5 -33.5l-45 53q23 29 62.5 45.5
t85.5 16.5q31 0 58 -6t47 -19t31.5 -33t11.5 -47q0 -32 -23.5 -58.5t-60.5 -30.5q42 -5 66 -30t24 -63z" />
    <glyph glyph-name="acute" unicode="&#xb4;" horiz-adv-x="235" 
d="M235 700h-108l-127 -147h113z" />
    <glyph glyph-name="mu" unicode="&#xb5;" horiz-adv-x="751" 
d="M757 421h-290l-90 276l-89 -276h-290l234 -171l-89 -275l234 170l235 -170l-90 275z" />
    <glyph glyph-name="paragraph" unicode="&#xb6;" horiz-adv-x="449" 
d="M382 -100v868h-183q-36 0 -67 -13.5t-54.5 -37t-37 -54.5t-13.5 -67t13.5 -67t37 -54.5t54.5 -37t67 -13.5v-524h55v814h73v-814h55z" />
    <glyph glyph-name="periodcentered" unicode="&#xb7;" horiz-adv-x="250" 
d="M211 345q0 -18 -7 -33.5t-18.5 -27t-27 -18.5t-33.5 -7t-33.5 7t-27 18.5t-18 27t-6.5 33.5t6.5 33.5t18 27t27 18.5t33.5 7t33.5 -7t27 -18.5t18.5 -27t7 -33.5z" />
    <glyph glyph-name="periodcentered" unicode="&#x2219;" horiz-adv-x="250" 
d="M211 345q0 -18 -7 -33.5t-18.5 -27t-27 -18.5t-33.5 -7t-33.5 7t-27 18.5t-18 27t-6.5 33.5t6.5 33.5t18 27t27 18.5t33.5 7t33.5 -7t27 -18.5t18.5 -27t7 -33.5z" />
    <glyph glyph-name="cedilla" unicode="&#xb8;" horiz-adv-x="231" 
d="M231 -109q0 23 -11 38t-26.5 22.5t-33.5 7.5t-33 -7l21 56l-65 3l-30 -80l50 -24q15 14 32.5 10t17.5 -22q0 -9 -10 -18t-40 -9q-17 0 -37.5 8.5t-40.5 23.5l-25 -56q13 -10 42 -20.5t72 -10.5q54 0 85.5 23t31.5 55z" />
    <glyph glyph-name="onesuperior" unicode="&#xb9;" horiz-adv-x="314" 
d="M232 287h-83v272l-55 -59l-50 51l117 116h71v-380z" />
    <glyph glyph-name="ordmasculine" unicode="&#xba;" horiz-adv-x="334" 
d="M306 308v40h-259v-40h259zM316 538q0 -29 -10 -54t-28.5 -44.5t-45 -30.5t-58.5 -11t-58.5 11t-45 30.5t-28.5 44.5t-10 54q0 28 10 53.5t28.5 45t45 30.5t58.5 11t58.5 -11t45 -30.5t28.5 -45t10 -53.5zM242 538q0 36 -18 59t-50 23t-50 -23t-18 -59q0 -37 18 -60
t50 -23t50 23t18 60z" />
    <glyph glyph-name="guillemotright" unicode="&#xbb;" horiz-adv-x="479" 
d="M280 243l-160 177h-120l160 -177l-160 -180h120zM480 243l-160 177h-120l160 -177l-160 -180h120z" />
    <glyph glyph-name="onequarter" unicode="&#xbc;" horiz-adv-x="739" 
d="M595 667l-426 -667h-98l427 667h97zM204 287h-83v272l-55 -59l-50 51l117 116h71v-380zM703 81h-49v-80h-82v80h-189v61l156 238h115v-232h49v-67zM572 148v160l-103 -160h103z" />
    <glyph glyph-name="onehalf" unicode="&#xbd;" horiz-adv-x="773" 
d="M596 667l-426 -667h-98l427 667h97zM204 287h-83v272l-55 -59l-50 51l117 116h71v-380zM727 1h-296v60l12 10.5t31.5 27t45 38t53.5 42.5q32 24 50 44.5t18 41.5q0 29 -20 43t-49 14q-32 0 -58.5 -14.5t-39.5 -33.5l-48 54q9 13 25.5 24t37 19.5t43.5 13t46 4.5
q69 0 107.5 -31t38.5 -86q0 -20 -7 -38t-18.5 -33.5t-25 -28t-26.5 -22.5q-26 -19 -50.5 -38.5t-37.5 -30.5t-15 -13h183v-67z" />
    <glyph glyph-name="threequarters" unicode="&#xbe;" horiz-adv-x="813" 
d="M686 667l-427 -667h-98l427 667h98zM786 81h-49v-80h-82v80h-189v61l156 238h115v-232h49v-67zM655 148v160l-103 -160h103zM327 389q0 -52 -40.5 -82.5t-112.5 -30.5q-53 0 -90 16.5t-64 47.5l46 55q17 -23 44.5 -37.5t63.5 -14.5t53.5 16t17.5 36q0 21 -11.5 32
t-29.5 16t-41 5t-46 -1v66q53 -3 87.5 6t34.5 43q0 24 -19.5 35.5t-49.5 11.5q-32 0 -59.5 -14.5t-40.5 -33.5l-44 53q22 29 61.5 45.5t86.5 16.5q31 0 57.5 -6t46.5 -19t31.5 -33t11.5 -47q0 -16 -6 -31t-17.5 -27t-26.5 -20.5t-33 -10.5q42 -5 65.5 -30t23.5 -63z" />
    <glyph glyph-name="questiondown" unicode="&#xbf;" horiz-adv-x="455" 
d="M26 -31q0 31 8.5 55t25 43.5t40 36t53.5 32.5q30 17 35 46t-16 48l97 60q29 -25 39.5 -55.5t6.5 -60.5t-21.5 -56t-43.5 -42q-28 -17 -46.5 -29.5t-29 -24t-14.5 -22.5t-4 -25q0 -30 25 -46t63 -16q43 0 71 16t53 45l77 -89q-19 -17 -39.5 -32.5t-45.5 -26.5t-55.5 -17.5
t-68.5 -6.5q-45 0 -83.5 12t-66.5 34t-44 53t-16 68zM156 409q0 36 25 61t60 25q18 0 33.5 -6.5t27 -18.5t18.5 -27.5t7 -33.5t-7 -33.5t-18.5 -27t-27 -18t-33.5 -6.5q-35 0 -60 25t-25 60z" />
    <glyph glyph-name="Agrave" unicode="&#xc0;" horiz-adv-x="702" 
d="M699 0l-265 667h-169l-264 -667h166l48 136h268l49 -136h167zM446 244h-193l97 271zM465 732l-127 147h-108l122 -147h113z" />
    <glyph glyph-name="Aacute" unicode="&#xc1;" horiz-adv-x="702" 
d="M699 0l-265 667h-169l-264 -667h166l48 136h268l49 -136h167zM446 244h-193l97 271zM467 880h-108l-127 -147h113z" />
    <glyph glyph-name="Acircumflex" unicode="&#xc2;" horiz-adv-x="702" 
d="M699 0l-265 667h-169l-264 -667h166l48 136h268l49 -136h167zM446 244h-193l97 271zM481 731l-84 147h-92l-89 -147h95l39 78l36 -78h95z" />
    <glyph glyph-name="Atilde" unicode="&#xc3;" horiz-adv-x="702" 
d="M699 0l-265 667h-169l-264 -667h166l48 136h268l49 -136h167zM446 244h-193l97 271zM550 863l-78 17q-7 -38 -19 -58t-38 -20q-16 0 -24.5 8t-23.5 25q-17 20 -37 32.5t-55 12.5q-28 0 -50.5 -14.5t-39 -36t-26 -46.5t-11.5 -45l77 -17q7 38 19 58.5t38 20.5
q16 0 24.5 -8t23.5 -26q17 -20 35.5 -32t54.5 -12q28 0 51 14.5t39.5 36t26.5 46t13 44.5z" />
    <glyph glyph-name="Adieresis" unicode="&#xc4;" horiz-adv-x="702" 
d="M699 0l-265 667h-169l-264 -667h166l48 136h268l49 -136h167zM446 244h-193l97 271zM518 788q0 27 -19 46.5t-47 19.5t-47 -19.5t-19 -46.5q0 -28 19 -47.5t47 -19.5t47 19.5t19 47.5zM317 788q0 27 -19 46.5t-47 19.5t-47 -19.5t-19 -46.5q0 -28 19 -47.5t47 -19.5
t47 19.5t19 47.5z" />
    <glyph glyph-name="Aring" unicode="&#xc5;" horiz-adv-x="702" 
d="M699 0h-167l-49 136h-268l-48 -136h-166l264 667h169zM446 244l-96 271l-97 -271h193zM449 808q0 -40 -27.5 -69t-72.5 -29q-46 0 -73 29t-27 69q0 41 27 70t73 29q45 0 72.5 -29t27.5 -70zM397 808q0 26 -12.5 42t-35.5 16t-35.5 -16t-12.5 -42t12.5 -42t35.5 -16
t35.5 16t12.5 42z" />
    <glyph glyph-name="AE" unicode="&#xc6;" horiz-adv-x="986" 
d="M946 0v119h-334v165h327v112h-327v153h334v118h-538l-413 -667h175l79 136h219v-136h478zM468 244h-158l158 270v-270z" />
    <glyph glyph-name="Ccedilla" unicode="&#xc7;" horiz-adv-x="698" 
d="M681 129l-115 69q-26 -45 -68 -71.5t-96 -26.5q-44 0 -83 16t-68 46.5t-45.5 73.5t-16.5 97t16.5 97.5t45.5 73.5t68 46.5t83 16.5q54 0 95.5 -26.5t67.5 -71.5l115 70q-19 30 -45 57t-60 47t-77 32t-96 12q-76 0 -141.5 -26.5t-114 -73.5t-76.5 -112t-28 -142t28 -141.5
t76.5 -111.5t114 -73.5t141.5 -26.5q53 0 96.5 12t77.5 32t60 47.5t45 57.5zM504 -117q0 23 -11 38t-26.5 22.5t-33.5 7.5t-33 -7l21 56l-65 3l-30 -80l50 -24q15 14 32.5 10t17.5 -22q0 -9 -10 -18t-40 -9q-17 0 -37.5 8.5t-40.5 23.5l-25 -56q13 -10 42 -20.5t72 -10.5
q54 0 85.5 23t31.5 55z" />
    <glyph glyph-name="Egrave" unicode="&#xc8;" horiz-adv-x="580" 
d="M540 0v119h-334v164h327v113h-327v153h334v118h-478v-667h478zM414 732l-127 147h-108l122 -147h113z" />
    <glyph glyph-name="Eacute" unicode="&#xc9;" horiz-adv-x="580" 
d="M540 0v119h-334v164h327v113h-327v153h334v118h-478v-667h478zM412 877h-108l-127 -147h113z" />
    <glyph glyph-name="Ecircumflex" unicode="&#xca;" horiz-adv-x="580" 
d="M540 0v119h-334v164h327v113h-327v153h334v118h-478v-667h478zM432 731l-84 147h-92l-89 -147h95l39 78l36 -78h95z" />
    <glyph glyph-name="Edieresis" unicode="&#xcb;" horiz-adv-x="580" 
d="M540 0v119h-334v164h327v113h-327v153h334v118h-478v-667h478zM466 795q0 27 -19 46.5t-47 19.5t-47 -19.5t-19 -46.5q0 -28 19 -47.5t47 -19.5t47 19.5t19 47.5zM265 795q0 27 -19 46.5t-47 19.5t-47 -19.5t-19 -46.5q0 -28 19 -47.5t47 -19.5t47 19.5t19 47.5z" />
    <glyph glyph-name="Igrave" unicode="&#xcc;" horiz-adv-x="267" 
d="M206 0v667h-144v-667h144zM297 732l-127 147h-108l122 -147h113z" />
    <glyph glyph-name="Iacute" unicode="&#xcd;" horiz-adv-x="267" 
d="M206 0v667h-144v-667h144zM297 881h-108l-127 -147h113z" />
    <glyph glyph-name="Icircumflex" unicode="&#xce;" horiz-adv-x="267" 
d="M206 0v667h-144v-667h144zM327 730l-84 147h-92l-89 -147h95l39 78l36 -78h95z" />
    <glyph glyph-name="Idieresis" unicode="&#xcf;" horiz-adv-x="267" 
d="M206 0v667h-144v-667h144zM395 795q0 27 -19 46.5t-47 19.5t-47 -19.5t-19 -46.5q0 -28 19 -47.5t47 -19.5t47 19.5t19 47.5zM194 795q0 27 -19 46.5t-47 19.5t-47 -19.5t-19 -46.5q0 -28 19 -47.5t47 -19.5t47 19.5t19 47.5z" />
    <glyph glyph-name="Eth" unicode="&#xd0;" horiz-adv-x="721" 
d="M683 333q0 75 -26.5 136.5t-73.5 105.5t-111.5 68t-140.5 24h-269v-285h-62v-78h62v-304h269q76 0 140.5 24t111.5 68t73.5 105t26.5 136zM535 333q0 -44 -14.5 -83.5t-41.5 -68.5t-64.5 -46t-83.5 -17h-125v186h74v78h-74v167h125q47 0 85 -16.5t64.5 -46t40.5 -69
t14 -84.5z" />
    <glyph glyph-name="Ntilde" unicode="&#xd1;" horiz-adv-x="727" 
d="M663 0v667h-144v-434l-308 434h-149v-667h143v454l322 -454h136zM559 865l-78 17q-7 -38 -19 -58t-38 -20q-16 0 -24.5 8t-23.5 25q-17 20 -37 32.5t-55 12.5q-28 0 -50.5 -14.5t-39 -36t-26 -46.5t-11.5 -45l77 -17q7 38 19 58.5t38 20.5q16 0 24.5 -8t23.5 -26
q17 -20 35.5 -32t54.5 -12q28 0 51 14.5t39.5 36t26.5 46t13 44.5z" />
    <glyph glyph-name="Ograve" unicode="&#xd2;" horiz-adv-x="786" 
d="M745 333q0 75 -26.5 139.5t-74 112.5t-112 75t-139.5 27t-139.5 -27t-111.5 -75t-73.5 -112.5t-26.5 -139.5t26.5 -139.5t73.5 -112t111.5 -74.5t139.5 -27t139.5 27t112 74.5t74 112t26.5 139.5zM597 333q0 -48 -14 -90.5t-40 -74t-64 -50t-86 -18.5t-86 18.5t-64 50
t-40 74t-14 90.5t14 91t40 74.5t64 50t86 18.5t86 -18.5t64 -50t40 -74.5t14 -91zM500 732l-127 147h-108l122 -147h113z" />
    <glyph glyph-name="Oacute" unicode="&#xd3;" horiz-adv-x="786" 
d="M745 333q0 75 -26.5 139.5t-74 112.5t-112 75t-139.5 27t-139.5 -27t-111.5 -75t-73.5 -112.5t-26.5 -139.5t26.5 -139.5t73.5 -112t111.5 -74.5t139.5 -27t139.5 27t112 74.5t74 112t26.5 139.5zM597 333q0 -48 -14 -90.5t-40 -74t-64 -50t-86 -18.5t-86 18.5t-64 50
t-40 74t-14 90.5t14 91t40 74.5t64 50t86 18.5t86 -18.5t64 -50t40 -74.5t14 -91zM507 880h-108l-127 -147h113z" />
    <glyph glyph-name="Ocircumflex" unicode="&#xd4;" horiz-adv-x="786" 
d="M745 333q0 75 -26.5 139.5t-74 112.5t-112 75t-139.5 27t-139.5 -27t-111.5 -75t-73.5 -112.5t-26.5 -139.5t26.5 -139.5t73.5 -112t111.5 -74.5t139.5 -27t139.5 27t112 74.5t74 112t26.5 139.5zM597 333q0 -48 -14 -90.5t-40 -74t-64 -50t-86 -18.5t-86 18.5t-64 50
t-40 74t-14 90.5t14 91t40 74.5t64 50t86 18.5t86 -18.5t64 -50t40 -74.5t14 -91zM518 731l-84 147h-92l-89 -147h95l39 78l36 -78h95z" />
    <glyph glyph-name="Otilde" unicode="&#xd5;" horiz-adv-x="786" 
d="M745 333q0 75 -26.5 139.5t-74 112.5t-112 75t-139.5 27t-139.5 -27t-111.5 -75t-73.5 -112.5t-26.5 -139.5t26.5 -139.5t73.5 -112t111.5 -74.5t139.5 -27t139.5 27t112 74.5t74 112t26.5 139.5zM597 333q0 -48 -14 -90.5t-40 -74t-64 -50t-86 -18.5t-86 18.5t-64 50
t-40 74t-14 90.5t14 91t40 74.5t64 50t86 18.5t86 -18.5t64 -50t40 -74.5t14 -91zM594 869l-78 17q-7 -38 -19 -58t-38 -20q-16 0 -24.5 8t-23.5 25q-17 20 -37 32.5t-55 12.5q-28 0 -50.5 -14.5t-39 -36t-26 -46.5t-11.5 -45l77 -17q7 38 19 58.5t38 20.5q16 0 24.5 -8
t23.5 -26q17 -20 35.5 -32t54.5 -12q28 0 51 14.5t39.5 36t26.5 46t13 44.5z" />
    <glyph glyph-name="Odieresis" unicode="&#xd6;" horiz-adv-x="786" 
d="M745 333q0 75 -26.5 139.5t-74 112.5t-112 75t-139.5 27t-139.5 -27t-111.5 -75t-73.5 -112.5t-26.5 -139.5t26.5 -139.5t73.5 -112t111.5 -74.5t139.5 -27t139.5 27t112 74.5t74 112t26.5 139.5zM597 333q0 -48 -14 -90.5t-40 -74t-64 -50t-86 -18.5t-86 18.5t-64 50
t-40 74t-14 90.5t14 91t40 74.5t64 50t86 18.5t86 -18.5t64 -50t40 -74.5t14 -91zM558 801q0 27 -19 46.5t-47 19.5t-47 -19.5t-19 -46.5q0 -28 19 -47.5t47 -19.5t47 19.5t19 47.5zM357 801q0 27 -19 46.5t-47 19.5t-47 -19.5t-19 -46.5q0 -28 19 -47.5t47 -19.5t47 19.5
t19 47.5z" />
    <glyph glyph-name="multiply" unicode="&#xd7;" horiz-adv-x="511" 
d="M458 102l-142 142l134 134l-61 61l-134 -134l-139 139l-63 -63l139 -139l-134 -134l61 -61l134 134l142 -142z" />
    <glyph glyph-name="Oslash" unicode="&#xd8;" horiz-adv-x="786" 
d="M745 333q0 82 -31 150.5t-86 116.5l52 67h-98l-17 -23q-38 20 -80.5 31.5t-90.5 11.5q-75 0 -139.5 -27t-112 -75t-74 -112.5t-26.5 -139.5q0 -76 27.5 -141t76.5 -113l-61 -79h98l23 31q41 -24 88 -37.5t100 -13.5q75 0 139 27t111.5 74.5t74 112t26.5 139.5zM487 545
l-253 -354q-21 28 -32.5 64t-11.5 78q0 48 14 91t40 74.5t64 50t86 18.5q51 0 93 -22zM598 333q0 -48 -14 -90.5t-40 -74t-64 -50t-86 -18.5q-62 0 -110 31l259 361q26 -30 40.5 -70.5t14.5 -88.5z" />
    <glyph glyph-name="Ugrave" unicode="&#xd9;" horiz-adv-x="731" 
d="M669 256v411h-147v-416q0 -29 -11.5 -56.5t-32 -48.5t-49.5 -33.5t-64 -12.5t-63.5 12.5t-49 33.5t-32 48.5t-11.5 56.5v416h-147v-411q0 -56 21.5 -106.5t61 -88t95.5 -59.5t125 -22t125.5 22t96 59.5t61 88t21.5 106.5zM485 733l-127 147h-108l122 -147h113z" />
    <glyph glyph-name="Uacute" unicode="&#xda;" horiz-adv-x="731" 
d="M669 256v411h-147v-416q0 -29 -11.5 -56.5t-32 -48.5t-49.5 -33.5t-64 -12.5t-63.5 12.5t-49 33.5t-32 48.5t-11.5 56.5v416h-147v-411q0 -56 21.5 -106.5t61 -88t95.5 -59.5t125 -22t125.5 22t96 59.5t61 88t21.5 106.5zM482 880h-108l-127 -147h113z" />
    <glyph glyph-name="Ucircumflex" unicode="&#xdb;" horiz-adv-x="731" 
d="M669 256v411h-147v-416q0 -29 -11.5 -56.5t-32 -48.5t-49.5 -33.5t-64 -12.5t-63.5 12.5t-49 33.5t-32 48.5t-11.5 56.5v416h-147v-411q0 -56 21.5 -106.5t61 -88t95.5 -59.5t125 -22t125.5 22t96 59.5t61 88t21.5 106.5zM495 732l-84 147h-92l-89 -147h95l39 78l36 -78
h95z" />
    <glyph glyph-name="Udieresis" unicode="&#xdc;" horiz-adv-x="731" 
d="M669 256v411h-147v-416q0 -29 -11.5 -56.5t-32 -48.5t-49.5 -33.5t-64 -12.5t-63.5 12.5t-49 33.5t-32 48.5t-11.5 56.5v416h-147v-411q0 -56 21.5 -106.5t61 -88t95.5 -59.5t125 -22t125.5 22t96 59.5t61 88t21.5 106.5zM532 795q0 27 -19 46.5t-47 19.5t-47 -19.5
t-19 -46.5q0 -28 19 -47.5t47 -19.5t47 19.5t19 47.5zM331 795q0 27 -19 46.5t-47 19.5t-47 -19.5t-19 -46.5q0 -28 19 -47.5t47 -19.5t47 19.5t19 47.5z" />
    <glyph glyph-name="Yacute" unicode="&#xdd;" horiz-adv-x="665" 
d="M663 667h-170l-161 -262l-160 262h-171l259 -392v-275h143v275zM447 874h-108l-127 -147h113z" />
    <glyph glyph-name="Thorn" unicode="&#xde;" horiz-adv-x="621" 
d="M600 347q0 44 -16.5 82t-46.5 66t-71.5 44t-90.5 16h-169v112h-144v-667h144v140h169q52 0 93.5 16t71 43.5t45 65.5t15.5 82zM452 347q0 -21 -8 -39t-21 -30.5t-29 -20t-32 -7.5h-156v194h156q16 0 32 -7.5t29 -20t21 -30.5t8 -39z" />
    <glyph glyph-name="germandbls" unicode="&#xdf;" horiz-adv-x="674" 
d="M643 144q0 71 -43 108.5t-132 50.5q-54 8 -77.5 18.5t-23.5 36.5q0 12 6 20.5t16 14.5q18 11 34 23t28 27.5t19 35.5t7 46q0 33 -12.5 62t-37.5 50t-61 33.5t-84 12.5q-51 0 -92 -14t-70.5 -38t-45 -56.5t-15.5 -70.5v-504h130v504q0 21 9 36t22.5 24.5t28.5 14.5t28 5
q24 0 39.5 -6t25.5 -15t14 -20t4 -21q0 -20 -15.5 -34t-41.5 -31q-30 -18 -47.5 -45t-17.5 -62q0 -69 45 -106t133 -49q92 -12 92 -58q0 -27 -26 -40.5t-61 -13.5q-19 0 -38.5 6.5t-36.5 17t-31.5 22.5t-23.5 23l-67 -82q16 -15 36 -30t44.5 -27t55.5 -19t70 -7
q45 0 83.5 11t67.5 31t45.5 49.5t16.5 65.5z" />
    <glyph glyph-name="agrave" unicode="&#xe0;" horiz-adv-x="564" 
d="M287 498q-23 0 -50.5 -3t-57.5 -11.5t-59.5 -24.5t-54.5 -42l56 -75q32 32 71 47.5t78 15.5q45 0 75 -25.5t30 -61.5v-62q-8 15 -23.5 26t-34.5 19t-39.5 12t-39.5 4q-33 0 -68.5 -8t-64 -27t-47 -50.5t-18.5 -79.5q0 -45 18.5 -76t47 -51t64 -29t68.5 -9q19 0 39.5 4.5
t39.5 12.5t34.5 20t23.5 27v-51h130v315q0 47 -17 81.5t-47 57t-69.5 33.5t-84.5 11zM375 120q-13 -23 -42.5 -35.5t-57.5 -12.5q-15 0 -33.5 4t-34 13.5t-26.5 25.5t-11 40t11 40t26.5 25.5t34 13.5t33.5 4q28 0 57.5 -12t42.5 -35v-71zM395 553l-127 147h-108l122 -147
h113z" />
    <glyph glyph-name="aacute" unicode="&#xe1;" horiz-adv-x="564" 
d="M287 498q-23 0 -50.5 -3t-57.5 -11.5t-59.5 -24.5t-54.5 -42l56 -75q32 32 71 47.5t78 15.5q45 0 75 -25.5t30 -61.5v-62q-8 15 -23.5 26t-34.5 19t-39.5 12t-39.5 4q-33 0 -68.5 -8t-64 -27t-47 -50.5t-18.5 -79.5q0 -45 18.5 -76t47 -51t64 -29t68.5 -9q19 0 39.5 4.5
t39.5 12.5t34.5 20t23.5 27v-51h130v315q0 47 -17 81.5t-47 57t-69.5 33.5t-84.5 11zM375 120q-13 -23 -42.5 -35.5t-57.5 -12.5q-15 0 -33.5 4t-34 13.5t-26.5 25.5t-11 40t11 40t26.5 25.5t34 13.5t33.5 4q28 0 57.5 -12t42.5 -35v-71zM400 700h-108l-127 -147h113z" />
    <glyph glyph-name="acircumflex" unicode="&#xe2;" horiz-adv-x="564" 
d="M287 498q-23 0 -50.5 -3t-57.5 -11.5t-59.5 -24.5t-54.5 -42l56 -75q32 32 71 47.5t78 15.5q45 0 75 -25.5t30 -61.5v-62q-8 15 -23.5 26t-34.5 19t-39.5 12t-39.5 4q-33 0 -68.5 -8t-64 -27t-47 -50.5t-18.5 -79.5q0 -45 18.5 -76t47 -51t64 -29t68.5 -9q19 0 39.5 4.5
t39.5 12.5t34.5 20t23.5 27v-51h130v315q0 47 -17 81.5t-47 57t-69.5 33.5t-84.5 11zM375 120q-13 -23 -42.5 -35.5t-57.5 -12.5q-15 0 -33.5 4t-34 13.5t-26.5 25.5t-11 40t11 40t26.5 25.5t34 13.5t33.5 4q28 0 57.5 -12t42.5 -35v-71zM413 553l-84 147h-92l-89 -147h95
l39 78l36 -78h95z" />
    <glyph glyph-name="atilde" unicode="&#xe3;" horiz-adv-x="564" 
d="M287 498q-23 0 -50.5 -3t-57.5 -11.5t-59.5 -24.5t-54.5 -42l56 -75q32 32 71 47.5t78 15.5q45 0 75 -25.5t30 -61.5v-62q-8 15 -23.5 26t-34.5 19t-39.5 12t-39.5 4q-33 0 -68.5 -8t-64 -27t-47 -50.5t-18.5 -79.5q0 -45 18.5 -76t47 -51t64 -29t68.5 -9q19 0 39.5 4.5
t39.5 12.5t34.5 20t23.5 27v-51h130v315q0 47 -17 81.5t-47 57t-69.5 33.5t-84.5 11zM375 120q-13 -23 -42.5 -35.5t-57.5 -12.5q-15 0 -33.5 4t-34 13.5t-26.5 25.5t-11 40t11 40t26.5 25.5t34 13.5t33.5 4q28 0 57.5 -12t42.5 -35v-71zM485 697l-78 17q-7 -38 -19 -58
t-38 -20q-16 0 -24.5 8t-23.5 25q-17 20 -37 32.5t-55 12.5q-28 0 -50.5 -14.5t-39 -36t-26 -46.5t-11.5 -45l77 -17q7 38 19 58.5t38 20.5q16 0 24.5 -8t23.5 -26q17 -20 35.5 -32t54.5 -12q28 0 51 14.5t39.5 36t26.5 46t13 44.5z" />
    <glyph glyph-name="adieresis" unicode="&#xe4;" horiz-adv-x="564" 
d="M287 498q-23 0 -50.5 -3t-57.5 -11.5t-59.5 -24.5t-54.5 -42l56 -75q32 32 71 47.5t78 15.5q45 0 75 -25.5t30 -61.5v-62q-8 15 -23.5 26t-34.5 19t-39.5 12t-39.5 4q-33 0 -68.5 -8t-64 -27t-47 -50.5t-18.5 -79.5q0 -45 18.5 -76t47 -51t64 -29t68.5 -9q19 0 39.5 4.5
t39.5 12.5t34.5 20t23.5 27v-51h130v315q0 47 -17 81.5t-47 57t-69.5 33.5t-84.5 11zM375 120q-13 -23 -42.5 -35.5t-57.5 -12.5q-15 0 -33.5 4t-34 13.5t-26.5 25.5t-11 40t11 40t26.5 25.5t34 13.5t33.5 4q28 0 57.5 -12t42.5 -35v-71zM448 644q0 27 -19 46.5t-47 19.5
t-47 -19.5t-19 -46.5q0 -28 19 -47.5t47 -19.5t47 19.5t19 47.5zM247 644q0 27 -19 46.5t-47 19.5t-47 -19.5t-19 -46.5q0 -28 19 -47.5t47 -19.5t47 19.5t19 47.5z" />
    <glyph glyph-name="aring" unicode="&#xe5;" horiz-adv-x="564" 
d="M287 498q45 0 84.5 -11t69.5 -33.5t47 -57t17 -81.5v-315h-130v51q-8 -15 -23.5 -27t-34.5 -20t-39.5 -12.5t-39.5 -4.5q-33 0 -68.5 9t-64 29t-47 51t-18.5 76q0 48 18.5 79.5t47 50.5t64 27t68.5 8q19 0 39.5 -4t39.5 -12t34.5 -19t23.5 -26v62q0 36 -30 61.5t-75 25.5
q-39 0 -78 -15.5t-71 -47.5l-56 75q25 26 54.5 42t59.5 24.5t57.5 11.5t50.5 3zM375 120v71q-13 23 -42.5 35t-57.5 12q-15 0 -33.5 -4t-34 -13.5t-26.5 -25.5t-11 -40t11 -40t26.5 -25.5t34 -13.5t33.5 -4q28 0 57.5 12.5t42.5 35.5zM386 639q0 -41 -27.5 -70t-72.5 -29
q-46 0 -73 29t-27 70q0 40 27 69t73 29q45 0 72.5 -29t27.5 -69zM334 639q0 26 -12.5 42t-35.5 16t-35.5 -16t-12.5 -42t12.5 -42t35.5 -16t35.5 16t12.5 42z" />
    <glyph glyph-name="ae" unicode="&#xe6;" horiz-adv-x="913" 
d="M873 200v42q0 54 -19 101t-52 81t-78.5 53.5t-98.5 19.5q-57 0 -100.5 -21t-74.5 -56q-25 37 -66 57.5t-96 20.5q-23 0 -50.5 -3t-57.5 -12t-59.5 -25t-54.5 -41l56 -75q32 32 71 47.5t78 15.5q45 0 75 -25t30 -62v-63q-8 15 -23.5 26.5t-34.5 19.5t-39.5 12t-39.5 4
q-33 0 -68.5 -8t-64 -27t-47 -50.5t-18.5 -79.5q0 -44 19.5 -75t50.5 -51t69.5 -29.5t75.5 -9.5q35 0 66 7t56.5 18t44.5 24t28 25q32 -35 77.5 -54.5t103.5 -19.5q22 0 49 3.5t54.5 12.5t54 24t49.5 38l-65 76q-26 -26 -64 -38t-68 -12q-57 0 -94 30.5t-47 78.5h372z
M754 283h-254q3 23 12.5 44t25 37.5t38 26t51.5 9.5q30 0 52.5 -10t38.5 -26.5t25 -37.5t11 -43zM376 120q-13 -24 -42.5 -36t-57.5 -12q-15 0 -33.5 4t-34 13.5t-26.5 25.5t-11 40t11 40t26.5 25.5t34 13.5t33.5 4q28 0 57.5 -12t42.5 -35v-71z" />
    <glyph glyph-name="ccedilla" unicode="&#xe7;" horiz-adv-x="516" 
d="M495 75l-84 76q-22 -29 -48.5 -44t-60.5 -15q-28 0 -51.5 11t-41 30.5t-27 47.5t-9.5 61t9.5 60.5t27 47.5t41 31t51.5 11q34 0 60.5 -15.5t48.5 -44.5l84 77q-37 43 -85.5 65.5t-112.5 22.5q-55 0 -102 -19t-81.5 -53t-54 -81t-19.5 -102t19.5 -102t54 -81t81.5 -53
t102 -19q64 0 112.5 22.5t85.5 65.5zM403 -113q0 23 -11 38t-26.5 22.5t-33.5 7.5t-33 -7l21 56l-65 3l-30 -80l50 -24q15 14 32.5 10t17.5 -22q0 -9 -10 -18t-40 -9q-17 0 -37.5 8.5t-40.5 23.5l-25 -56q13 -10 42 -20.5t72 -10.5q54 0 85.5 23t31.5 55z" />
    <glyph glyph-name="egrave" unicode="&#xe8;" horiz-adv-x="581" 
d="M542 200v42q0 54 -19 101t-52 81t-78.5 53.5t-99.5 19.5q-56 0 -102 -20t-80 -55t-52.5 -81.5t-18.5 -98.5q0 -56 20 -103t55 -81t82.5 -52.5t102.5 -18.5q22 0 49 3.5t55 12.5t54.5 24.5t48.5 38.5l-65 75q-13 -13 -29.5 -22.5t-34.5 -15.5t-35.5 -9t-32.5 -3
q-56 0 -93 30.5t-47 78.5h372zM423 283h-255q3 23 13 44t25.5 37.5t37.5 26t51 9.5q30 0 53 -10t38.5 -26.5t24.5 -37.5t12 -43zM412 553l-127 147h-108l122 -147h113z" />
    <glyph glyph-name="eacute" unicode="&#xe9;" horiz-adv-x="581" 
d="M542 200v42q0 54 -19 101t-52 81t-78.5 53.5t-99.5 19.5q-56 0 -102 -20t-80 -55t-52.5 -81.5t-18.5 -98.5q0 -56 20 -103t55 -81t82.5 -52.5t102.5 -18.5q22 0 49 3.5t55 12.5t54.5 24.5t48.5 38.5l-65 75q-13 -13 -29.5 -22.5t-34.5 -15.5t-35.5 -9t-32.5 -3
q-56 0 -93 30.5t-47 78.5h372zM423 283h-255q3 23 13 44t25.5 37.5t37.5 26t51 9.5q30 0 53 -10t38.5 -26.5t24.5 -37.5t12 -43zM405 700h-108l-127 -147h113z" />
    <glyph glyph-name="ecircumflex" unicode="&#xea;" horiz-adv-x="581" 
d="M542 200v42q0 54 -19 101t-52 81t-78.5 53.5t-99.5 19.5q-56 0 -102 -20t-80 -55t-52.5 -81.5t-18.5 -98.5q0 -56 20 -103t55 -81t82.5 -52.5t102.5 -18.5q22 0 49 3.5t55 12.5t54.5 24.5t48.5 38.5l-65 75q-13 -13 -29.5 -22.5t-34.5 -15.5t-35.5 -9t-32.5 -3
q-56 0 -93 30.5t-47 78.5h372zM423 283h-255q3 23 13 44t25.5 37.5t37.5 26t51 9.5q30 0 53 -10t38.5 -26.5t24.5 -37.5t12 -43zM425 553l-84 147h-92l-89 -147h95l39 78l36 -78h95z" />
    <glyph glyph-name="edieresis" unicode="&#xeb;" horiz-adv-x="581" 
d="M542 200v42q0 54 -19 101t-52 81t-78.5 53.5t-99.5 19.5q-56 0 -102 -20t-80 -55t-52.5 -81.5t-18.5 -98.5q0 -56 20 -103t55 -81t82.5 -52.5t102.5 -18.5q22 0 49 3.5t55 12.5t54.5 24.5t48.5 38.5l-65 75q-13 -13 -29.5 -22.5t-34.5 -15.5t-35.5 -9t-32.5 -3
q-56 0 -93 30.5t-47 78.5h372zM423 283h-255q3 23 13 44t25.5 37.5t37.5 26t51 9.5q30 0 53 -10t38.5 -26.5t24.5 -37.5t12 -43zM457 644q0 27 -19 46.5t-47 19.5t-47 -19.5t-19 -46.5q0 -28 19 -47.5t47 -19.5t47 19.5t19 47.5zM256 644q0 27 -19 46.5t-47 19.5t-47 -19.5
t-19 -46.5q0 -28 19 -47.5t47 -19.5t47 19.5t19 47.5z" />
    <glyph glyph-name="igrave" unicode="&#xec;" horiz-adv-x="248" 
d="M189 0v483h-130v-483h130zM294 553l-127 147h-108l122 -147h113z" />
    <glyph glyph-name="iacute" unicode="&#xed;" horiz-adv-x="248" 
d="M189 0v483h-130v-483h130zM294 700h-108l-127 -147h113z" />
    <glyph glyph-name="icircumflex" unicode="&#xee;" horiz-adv-x="248" 
d="M189 0v483h-130v-483h130zM324 553l-84 147h-92l-89 -147h95l39 78l36 -78h95z" />
    <glyph glyph-name="idieresis" unicode="&#xef;" horiz-adv-x="248" 
d="M189 0v483h-130v-483h130zM392 644q0 27 -19 46.5t-47 19.5t-47 -19.5t-19 -46.5q0 -28 19 -47.5t47 -19.5t47 19.5t19 47.5zM191 644q0 27 -19 46.5t-47 19.5t-47 -19.5t-19 -46.5q0 -28 19 -47.5t47 -19.5t47 19.5t19 47.5z" />
    <glyph glyph-name="eth" unicode="&#xf0;" horiz-adv-x="594" 
d="M595 523v66h-60v78h-130v-78h-64v-66h64v-100q-20 36 -58.5 55t-88.5 19q-45 0 -85 -18t-69.5 -51t-46.5 -80t-17 -106q0 -60 17 -107.5t47 -80t69.5 -50t84.5 -17.5q50 0 88.5 19t58.5 54v-60h130v523h60zM405 142q-15 -24 -43.5 -37.5t-62.5 -13.5q-28 0 -51 11
t-39.5 31.5t-26 48t-9.5 60.5t9.5 60.5t26 47.5t39.5 31t51 11q34 0 62.5 -13.5t43.5 -36.5v-200z" />
    <glyph glyph-name="ntilde" unicode="&#xf1;" horiz-adv-x="575" 
d="M516 0v330q0 75 -42 121t-121 46q-32 0 -57.5 -6.5t-45.5 -16.5t-35 -22.5t-26 -24.5v56h-130v-483h130v333q20 24 45 39.5t63 15.5t63.5 -22t25.5 -70v-296h130zM486 697l-78 17q-7 -38 -19 -58t-38 -20q-16 0 -24.5 8t-23.5 25q-17 20 -37 32.5t-55 12.5
q-28 0 -50.5 -14.5t-39 -36t-26 -46.5t-11.5 -45l77 -17q7 38 19 58.5t38 20.5q16 0 24.5 -8t23.5 -26q17 -20 35.5 -32t54.5 -12q28 0 51 14.5t39.5 36t26.5 46t13 44.5z" />
    <glyph glyph-name="ograve" unicode="&#xf2;" horiz-adv-x="595" 
d="M556 242q0 52 -18.5 98t-52 81t-81.5 55.5t-107 20.5t-106 -20.5t-81 -55.5t-52 -81t-18 -98t18 -98t52 -81t81.5 -55.5t106.5 -20.5t106.5 20.5t81.5 55.5t52 81t18 98zM422 242q0 -67 -33 -108.5t-92 -41.5q-58 0 -90.5 41.5t-32.5 108.5q0 66 32.5 108t91.5 42
q58 0 91 -42t33 -108zM409 553l-127 147h-108l122 -147h113z" />
    <glyph glyph-name="oacute" unicode="&#xf3;" horiz-adv-x="595" 
d="M556 242q0 52 -18.5 98t-52 81t-81.5 55.5t-107 20.5t-106 -20.5t-81 -55.5t-52 -81t-18 -98t18 -98t52 -81t81.5 -55.5t106.5 -20.5t106.5 20.5t81.5 55.5t52 81t18 98zM422 242q0 -67 -33 -108.5t-92 -41.5q-58 0 -90.5 41.5t-32.5 108.5q0 66 32.5 108t91.5 42
q58 0 91 -42t33 -108zM413 700h-108l-127 -147h113z" />
    <glyph glyph-name="ocircumflex" unicode="&#xf4;" horiz-adv-x="595" 
d="M556 242q0 52 -18.5 98t-52 81t-81.5 55.5t-107 20.5t-106 -20.5t-81 -55.5t-52 -81t-18 -98t18 -98t52 -81t81.5 -55.5t106.5 -20.5t106.5 20.5t81.5 55.5t52 81t18 98zM422 242q0 -67 -33 -108.5t-92 -41.5q-58 0 -90.5 41.5t-32.5 108.5q0 66 32.5 108t91.5 42
q58 0 91 -42t33 -108zM430 553l-84 147h-92l-89 -147h95l39 78l36 -78h95z" />
    <glyph glyph-name="otilde" unicode="&#xf5;" horiz-adv-x="595" 
d="M556 242q0 52 -18.5 98t-52 81t-81.5 55.5t-107 20.5t-106 -20.5t-81 -55.5t-52 -81t-18 -98t18 -98t52 -81t81.5 -55.5t106.5 -20.5t106.5 20.5t81.5 55.5t52 81t18 98zM422 242q0 -67 -33 -108.5t-92 -41.5q-58 0 -90.5 41.5t-32.5 108.5q0 66 32.5 108t91.5 42
q58 0 91 -42t33 -108zM496 697l-78 17q-7 -38 -19 -58t-38 -20q-16 0 -24.5 8t-23.5 25q-17 20 -37 32.5t-55 12.5q-28 0 -50.5 -14.5t-39 -36t-26 -46.5t-11.5 -45l77 -17q7 38 19 58.5t38 20.5q16 0 24.5 -8t23.5 -26q17 -20 35.5 -32t54.5 -12q28 0 51 14.5t39.5 36
t26.5 46t13 44.5z" />
    <glyph glyph-name="odieresis" unicode="&#xf6;" horiz-adv-x="595" 
d="M556 242q0 52 -18.5 98t-52 81t-81.5 55.5t-107 20.5t-106 -20.5t-81 -55.5t-52 -81t-18 -98t18 -98t52 -81t81.5 -55.5t106.5 -20.5t106.5 20.5t81.5 55.5t52 81t18 98zM422 242q0 -67 -33 -108.5t-92 -41.5q-58 0 -90.5 41.5t-32.5 108.5q0 66 32.5 108t91.5 42
q58 0 91 -42t33 -108zM462 644q0 27 -19 46.5t-47 19.5t-47 -19.5t-19 -46.5q0 -28 19 -47.5t47 -19.5t47 19.5t19 47.5zM261 644q0 27 -19 46.5t-47 19.5t-47 -19.5t-19 -46.5q0 -28 19 -47.5t47 -19.5t47 19.5t19 47.5z" />
    <glyph glyph-name="divide" unicode="&#xf7;" horiz-adv-x="511" 
d="M325 439q0 27 -19 46.5t-50 19.5q-32 0 -51 -19.5t-19 -46.5q0 -28 19 -47t51 -19q31 0 50 19t19 47zM482 205v80h-453v-80h453zM323 52q0 27 -19 46.5t-50 19.5q-32 0 -50.5 -19.5t-18.5 -46.5q0 -28 18.5 -47t50.5 -19q31 0 50 19t19 47z" />
    <glyph glyph-name="oslash" unicode="&#xf8;" horiz-adv-x="604" 
d="M561 242q0 51 -18 97t-51 81l55 63h-81l-21 -25q-62 39 -142 39q-59 0 -106.5 -20.5t-81 -55.5t-52 -81t-18.5 -98q0 -51 17 -95t49 -79l-59 -68h81l24 28q30 -20 67 -30.5t79 -10.5q59 0 106.5 20.5t81.5 55.5t52 81t18 98zM369 373l-172 -208q-8 17 -13 36t-5 41
q0 66 33 108t91 42q37 0 66 -19zM427 242q0 -67 -32.5 -108.5t-91.5 -41.5q-40 0 -70 22l173 209q21 -33 21 -81z" />
    <glyph glyph-name="ugrave" unicode="&#xf9;" horiz-adv-x="575" 
d="M516 0v483h-130v-333q-20 -23 -45 -39t-63 -16t-63.5 22t-25.5 70v296h-130v-330q0 -75 42 -120.5t121 -45.5q32 0 57.5 6.5t45.5 16.5t35 22.5t26 24.5v-57h130zM402 553l-127 147h-108l122 -147h113z" />
    <glyph glyph-name="uacute" unicode="&#xfa;" horiz-adv-x="575" 
d="M516 0v483h-130v-333q-20 -23 -45 -39t-63 -16t-63.5 22t-25.5 70v296h-130v-330q0 -75 42 -120.5t121 -45.5q32 0 57.5 6.5t45.5 16.5t35 22.5t26 24.5v-57h130zM405 700h-108l-127 -147h113z" />
    <glyph glyph-name="ucircumflex" unicode="&#xfb;" horiz-adv-x="575" 
d="M516 0v483h-130v-333q-20 -23 -45 -39t-63 -16t-63.5 22t-25.5 70v296h-130v-330q0 -75 42 -120.5t121 -45.5q32 0 57.5 6.5t45.5 16.5t35 22.5t26 24.5v-57h130zM420 553l-84 147h-92l-89 -147h95l39 78l36 -78h95z" />
    <glyph glyph-name="udieresis" unicode="&#xfc;" horiz-adv-x="575" 
d="M516 0v483h-130v-333q-20 -23 -45 -39t-63 -16t-63.5 22t-25.5 70v296h-130v-330q0 -75 42 -120.5t121 -45.5q32 0 57.5 6.5t45.5 16.5t35 22.5t26 24.5v-57h130zM452 644q0 27 -19 46.5t-47 19.5t-47 -19.5t-19 -46.5q0 -28 19 -47.5t47 -19.5t47 19.5t19 47.5zM251 644
q0 27 -19 46.5t-47 19.5t-47 -19.5t-19 -46.5q0 -28 19 -47.5t47 -19.5t47 19.5t19 47.5z" />
    <glyph glyph-name="yacute" unicode="&#xfd;" horiz-adv-x="531" 
d="M532 483h-140l-126 -356l-126 356h-140l200 -495l-4 -9t-9 -20q-11 -26 -34.5 -39t-74.5 -12v-115q41 0 75 4t61.5 17.5t50 39.5t40.5 70zM383 700h-108l-127 -147h113z" />
    <glyph glyph-name="thorn" unicode="&#xfe;" horiz-adv-x="594" 
d="M555 242q0 60 -17 107.5t-46.5 80t-69.5 50t-86 17.5q-50 0 -88.5 -19t-58.5 -55v244h-130v-860h130v253q20 -36 58.5 -54.5t88.5 -18.5q46 0 86 17.5t69.5 50t46.5 80t17 107.5zM421 242q0 -33 -9.5 -60.5t-26 -48t-39.5 -31.5t-51 -11q-34 0 -62.5 13.5t-43.5 37.5v200
q15 23 43.5 36.5t62.5 13.5q28 0 51 -11t39.5 -31t26 -47.5t9.5 -60.5z" />
    <glyph glyph-name="ydieresis" unicode="&#xff;" horiz-adv-x="531" 
d="M532 483h-140l-126 -356l-126 356h-140l200 -495l-4 -9t-9 -20q-11 -26 -34.5 -39t-74.5 -12v-115q41 0 75 4t61.5 17.5t50 39.5t40.5 70zM435 644q0 27 -19 46.5t-47 19.5t-47 -19.5t-19 -46.5q0 -28 19 -47.5t47 -19.5t47 19.5t19 47.5zM234 644q0 27 -19 46.5
t-47 19.5t-47 -19.5t-19 -46.5q0 -28 19 -47.5t47 -19.5t47 19.5t19 47.5z" />
    <glyph glyph-name="OE" unicode="&#x152;" horiz-adv-x="1093" 
d="M1060 0v119h-333v165h327v112h-327v153h333v118h-478v-65q-36 39 -86.5 62t-113.5 23q-74 0 -136.5 -27t-107.5 -75t-70.5 -112.5t-25.5 -139.5t25.5 -139.5t70.5 -112t107.5 -74.5t136.5 -27q63 0 113.5 23t86.5 62v-65h478zM582 198q-26 -45 -71.5 -71.5t-108.5 -26.5
q-50 0 -89.5 18.5t-67 50t-42 74t-14.5 90.5t14.5 91t42 74.5t67 50t89.5 18.5q63 0 108.5 -26.5t71.5 -71.5v-271z" />
    <glyph glyph-name="oe" unicode="&#x153;" horiz-adv-x="963" 
d="M924 200v42q0 54 -19 101t-52.5 81t-79 53.5t-98.5 19.5q-63 0 -111.5 -26t-79.5 -70q-29 44 -76.5 70t-110.5 26q-59 0 -106 -20.5t-81 -55.5t-52 -81t-18 -98t18 -98t52 -81t81 -55.5t106 -20.5q63 0 110.5 26t76.5 70q32 -45 83 -70.5t115 -25.5q22 0 49 3.5t55 12.5
t54.5 24t48.5 38l-65 76q-13 -13 -29.5 -22.5t-34.5 -15.5t-35.5 -9t-32.5 -3q-57 0 -93.5 30.5t-47.5 78.5h373zM805 283h-255q3 23 13 44t25.5 37.5t37.5 26t51 9.5q30 0 53 -10t38.5 -26.5t24.5 -37.5t12 -43zM422 242q0 -67 -33 -108.5t-92 -41.5q-58 0 -91 41.5
t-33 108.5t33 108.5t91 41.5q59 0 92 -41.5t33 -108.5z" />
    <glyph glyph-name="Scaron" unicode="&#x160;" horiz-adv-x="628" 
d="M587 195q0 51 -18 87t-51.5 61.5t-80.5 41t-105 25.5q-69 12 -100.5 30t-31.5 51q0 22 9.5 37.5t25.5 25.5t36.5 15t42.5 5q24 0 48.5 -6t47 -16t41.5 -23.5t32 -28.5l83 87q-17 18 -41 36t-56 32.5t-73.5 23t-93.5 8.5q-57 0 -105 -17t-82.5 -45t-53.5 -65.5t-19 -77.5
q0 -35 11 -67.5t38 -59.5t72.5 -48t114.5 -32q78 -13 115 -36t37 -59q0 -22 -10.5 -38.5t-28.5 -27t-42.5 -16t-51.5 -5.5q-32 0 -61.5 10.5t-54 25.5t-42 31.5t-25.5 28.5l-85 -97q17 -18 41.5 -38t58 -36.5t76.5 -27t97 -10.5q58 0 109.5 13.5t90.5 40t62 67t23 94.5z
M447 875h-95l-36 -79l-39 79h-95l89 -148h92z" />
    <glyph glyph-name="scaron" unicode="&#x161;" horiz-adv-x="497" 
d="M457 144q0 71 -46.5 108.5t-142.5 50.5q-54 8 -77.5 19t-23.5 36q0 26 25.5 36.5t59.5 10.5q39 0 74.5 -16t50.5 -36l59 75q-27 26 -75 47.5t-120 21.5q-44 0 -81 -11t-64 -30.5t-42.5 -46.5t-15.5 -59q0 -70 45 -107t134 -48q51 -7 78.5 -20t27.5 -38q0 -27 -24.5 -40.5
t-63.5 -13.5q-22 0 -43.5 6.5t-41 17t-35 22.5t-24.5 23l-67 -82q16 -15 36.5 -30t47.5 -27t60 -19t75 -7q49 0 88.5 11t67.5 31.5t43 49.5t15 65zM373 700h-95l-36 -79l-39 79h-95l89 -148h92z" />
    <glyph glyph-name="Ydieresis" unicode="&#x178;" horiz-adv-x="665" 
d="M663 667h-170l-161 -262l-160 262h-171l259 -392v-275h143v275zM500 795q0 27 -19 46.5t-47 19.5t-47 -19.5t-19 -46.5q0 -28 19 -47.5t47 -19.5t47 19.5t19 47.5zM299 795q0 27 -19 46.5t-47 19.5t-47 -19.5t-19 -46.5q0 -28 19 -47.5t47 -19.5t47 19.5t19 47.5z" />
    <glyph glyph-name="florin" unicode="&#x192;" horiz-adv-x="775" 
d="M716 0v667h-130v-25q-11 16 -36.5 28.5t-51.5 12.5q-79 0 -127 -48q-20 23 -54 35.5t-73 12.5q-37 0 -69.5 -11.5t-57 -32.5t-38.5 -50.5t-14 -65.5v-40h-80v-97h80v-386h130v386h131v-386h130v386h90v97h-90v39q0 29 18 45.5t44 16.5q18 0 38.5 -7t29.5 -18v-559h130z
M330 556q-4 -13 -4 -33v-40h-131v39q0 29 19.5 45.5t45.5 16.5q21 0 40 -6.5t30 -21.5z" />
    <glyph glyph-name="circumflex" unicode="&#x2c6;" horiz-adv-x="265" 
d="M265 553l-84 147h-92l-89 -147h95l39 78l36 -78h95z" />
    <glyph glyph-name="tilde" unicode="&#x2dc;" horiz-adv-x="401" 
d="M402 697l-78 17q-7 -38 -19 -58t-38 -20q-16 0 -24.5 8t-23.5 25q-17 20 -37 32.5t-55 12.5q-28 0 -50.5 -14.5t-39 -36t-26 -46.5t-11.5 -45l77 -17q7 38 19 58.5t38 20.5q16 0 24.5 -8t23.5 -26q17 -20 35.5 -32t54.5 -12q28 0 51 14.5t39.5 36t26.5 46t13 44.5z" />
    <glyph glyph-name="endash" unicode="&#x2013;" horiz-adv-x="593" 
d="M563 184v115h-533v-115h533z" />
    <glyph glyph-name="emdash" unicode="&#x2014;" horiz-adv-x="833" 
d="M803 184v115h-773v-115h773z" />
    <glyph glyph-name="quoteleft" unicode="&#x2018;" horiz-adv-x="250" 
d="M211 474q0 26 -15.5 46t-36.5 28q-8 3 -18.5 5t-18.5 0q2 12 10 24t19 23.5t22.5 21.5t21.5 18l-58 47q-48 -43 -72.5 -93t-24.5 -109q0 -27 8 -45.5t20.5 -30t27.5 -16.5t29 -5q36 0 61 25t25 61z" />
    <glyph glyph-name="quoteright" unicode="&#x2019;" horiz-adv-x="250" 
d="M211 580q0 27 -8 45.5t-21 30t-28 16.5t-29 5q-35 0 -60 -25t-25 -61q0 -26 15 -46t35 -28q8 -3 19 -5t19 0q-2 -12 -10 -24t-19 -23.5t-22.5 -22t-21.5 -17.5l57 -47q48 44 73.5 93.5t25.5 108.5z" />
    <glyph glyph-name="quotesinglbase" unicode="&#x201a;" horiz-adv-x="250" 
d="M211 68q0 -59 -25.5 -109t-73.5 -93l-57 46q10 8 21.5 18.5t22.5 22t19 23.5t10 24q-8 -2 -19 -0.5t-19 4.5q-20 8 -35 28.5t-15 46.5q0 18 6.5 33.5t18 27t27 18.5t33.5 7q14 0 29 -5t28 -17t21 -30.5t8 -45.5v1z" />
    <glyph glyph-name="quotedblleft" unicode="&#x201c;" horiz-adv-x="461" 
d="M422 474q0 26 -15.5 46t-36.5 28q-8 3 -19 5t-19 0q3 12 11 24t19 23.5t22.5 21.5t21.5 18l-58 47q-48 -43 -73 -93t-25 -109q0 -27 8 -45.5t21 -30t28 -16.5t29 -5q18 0 33.5 6.5t27 18.5t18.5 27.5t7 33.5zM211 474q0 26 -15.5 46t-36.5 28q-8 3 -18.5 5t-18.5 0
q2 12 10 24t19 23.5t22.5 21.5t21.5 18l-58 47q-48 -43 -72.5 -93t-24.5 -109q0 -27 8 -45.5t20.5 -30t27.5 -16.5t29 -5q36 0 61 25t25 61z" />
    <glyph glyph-name="quotedblright" unicode="&#x201d;" horiz-adv-x="461" 
d="M422 575q0 27 -8 45.5t-21 30t-28 16.5t-29 5q-18 0 -33.5 -6.5t-27 -18t-18.5 -27t-7 -33.5q0 -26 15.5 -46.5t35.5 -28.5q8 -3 19 -4.5t19 0.5q-2 -12 -10 -24t-19 -23.5t-22.5 -22t-21.5 -18.5l57 -46q48 43 73.5 93t25.5 108zM211 575q0 27 -8 45.5t-21 30t-28 16.5
t-29 5q-35 0 -60 -25t-25 -60q0 -26 15 -46.5t35 -28.5q8 -3 19 -4.5t19 0.5q-2 -12 -10 -24t-19 -23.5t-22.5 -22t-21.5 -18.5l57 -46q48 43 73.5 93t25.5 108z" />
    <glyph glyph-name="quotedblbase" unicode="&#x201e;" horiz-adv-x="463" 
d="M422 66q0 -58 -25.5 -108t-73.5 -94l-57 47q10 8 21.5 18t22.5 21.5t19 23.5t10 24q-8 -1 -19 0.5t-19 4.5q-20 8 -35.5 28t-15.5 46q0 18 7 33.5t18.5 27.5t27 18.5t33.5 6.5q14 0 29 -5t28 -16.5t21 -30t8 -45.5zM211 66q0 -58 -25.5 -108t-73.5 -94l-57 47
q10 8 21.5 18t22.5 21.5t19 23.5t10 24q-8 -1 -19 0.5t-19 4.5q-20 8 -35 28t-15 46q0 36 25 61t60 25q14 0 29 -5t28 -16.5t21 -30t8 -45.5z" />
    <glyph glyph-name="dagger" unicode="&#x2020;" horiz-adv-x="284" 
d="M262 529v67l-89 -3l4 94h-72l4 -94l-89 3v-67l89 5l-4 -197h72l-4 197z" />
    <glyph glyph-name="daggerdbl" unicode="&#x2021;" horiz-adv-x="284" 
d="M262 596l-89 -3l4 94h-72l4 -94l-89 3v-67l89 5v-190l-89 4v-67l89 3l-4 -93h72l-4 93l89 -3v67l-89 -4v190l89 -5v67z" />
    <glyph glyph-name="bullet" unicode="&#x2022;" horiz-adv-x="358" 
d="M310 285q0 27 -10 50.5t-28 41.5t-41.5 28t-50.5 10t-50.5 -10t-41.5 -28t-28 -41.5t-10 -50.5t10 -50.5t28 -41t41.5 -27.5t50.5 -10t50.5 10t41.5 27.5t28 41t10 50.5z" />
    <glyph glyph-name="ellipsis" unicode="&#x2026;" horiz-adv-x="985" 
d="M263 79q0 -18 -6.5 -33.5t-18.5 -27t-27.5 -18.5t-33.5 -7t-33.5 7t-27 18.5t-18 27t-6.5 33.5t6.5 33.5t18 27t27 18.5t33.5 7t33.5 -7t27.5 -18.5t18.5 -27t6.5 -33.5zM587 79q0 -18 -7 -33.5t-18.5 -27t-27 -18.5t-33.5 -7t-33.5 7t-27 18.5t-18.5 27t-7 33.5t7 33.5
t18.5 27t27 18.5t33.5 7t33.5 -7t27 -18.5t18.5 -27t7 -33.5zM911 79q0 -18 -6.5 -33.5t-18.5 -27t-27.5 -18.5t-33.5 -7t-33.5 7t-27 18.5t-18 27t-6.5 33.5t6.5 33.5t18 27t27 18.5t33.5 7t33.5 -7t27.5 -18.5t18.5 -27t6.5 -33.5z" />
    <glyph glyph-name="perthousand" unicode="&#x2030;" horiz-adv-x="1151" 
d="M367 518q0 34 -12 65t-34.5 54t-53.5 36.5t-70 13.5t-70 -13.5t-53.5 -36.5t-34.5 -54t-12 -65t12 -64.5t34.5 -53.5t53.5 -36.5t70 -13.5t70 13.5t53.5 36.5t34.5 53.5t12 64.5zM279 518q0 -44 -22 -71t-60 -27q-39 0 -60.5 27t-21.5 71q0 45 21.5 72t60.5 27
q38 0 60 -27t22 -72zM653 667h-97l-427 -667h98zM754 148q0 34 -12 64.5t-34.5 53.5t-54 36.5t-70.5 13.5t-70 -13.5t-53.5 -36.5t-34.5 -53.5t-12 -64.5t12 -64.5t34.5 -53.5t53.5 -36.5t70 -13.5t70.5 13.5t54 36.5t34.5 53.5t12 64.5zM665 148q0 -45 -21.5 -72t-60.5 -27
q-38 0 -59.5 27t-21.5 72t21.5 72t59.5 27q39 0 60.5 -27t21.5 -72zM1127 148q0 34 -12 64.5t-34.5 53.5t-54 36.5t-70.5 13.5t-70 -13.5t-53.5 -36.5t-34.5 -53.5t-12 -64.5t12 -64.5t34.5 -53.5t53.5 -36.5t70 -13.5t70.5 13.5t54 36.5t34.5 53.5t12 64.5zM1038 148
q0 -45 -22 -72t-60 -27t-60 27t-22 72t22 72t60 27t60 -27t22 -72z" />
    <glyph glyph-name="guilsinglleft" unicode="&#x2039;" horiz-adv-x="280" 
d="M280 63l-160 180l160 177h-120l-160 -177l160 -180h120z" />
    <glyph glyph-name="guilsinglright" unicode="&#x203a;" horiz-adv-x="280" 
d="M280 243l-160 177h-120l160 -177l-160 -180h120z" />
    <glyph glyph-name="trademark" unicode="&#x2122;" horiz-adv-x="456" 
d="M421 447v220h-43l-64 -160l-64 160h-44v-220h29v182l75 -182h8l75 182v-182h28zM170 641v26h-153v-26h62v-194h29v194h62z" />
    <glyph glyph-name="NUL" horiz-adv-x="500" 
 />
    <glyph glyph-name="HT" horiz-adv-x="500" 
 />
    <glyph glyph-name="LF" horiz-adv-x="500" 
 />
    <glyph glyph-name="DLE" horiz-adv-x="500" 
 />
    <glyph glyph-name="DC1" horiz-adv-x="500" 
 />
    <glyph glyph-name="DC2" horiz-adv-x="500" 
 />
    <glyph glyph-name="DC3" horiz-adv-x="500" 
 />
    <glyph glyph-name="DC4" horiz-adv-x="500" 
 />
    <glyph glyph-name="RS" horiz-adv-x="500" 
 />
    <glyph glyph-name="US" horiz-adv-x="500" 
 />
    <glyph glyph-name="DEL" horiz-adv-x="500" 
 />
    <glyph glyph-name="notequal" horiz-adv-x="661" 
d="M667 698l-43 43l-91 -169h-486v-572h571v572h-20zM582 36h-500v500h432l-185 -344l-160 221l-33 -75l202 -247l241 445h3v-500z" />
    <glyph glyph-name="infinity" horiz-adv-x="582" 
d="M538 211v150h-269l12 129l-281 -204l281 -205l-12 130h269z" />
    <glyph glyph-name="lessequal" horiz-adv-x="587" 
d="M535 595l-535 -309l535 -309v618z" />
    <glyph glyph-name="greaterequal" horiz-adv-x="587" 
d="M589 286l-535 309v-618z" />
    <glyph glyph-name="partialdiff" horiz-adv-x="616" 
d="M617 510h-619l309 -535z" />
    <glyph glyph-name="summation" horiz-adv-x="476" 
d="M439 447v220h-44l-64 -160l-64 160h-44v-220h29v182l75 -182h8l75 182v-182h29zM185 508q0 29 -20.5 44.5t-56.5 21.5q-30 5 -43 13.5t-13 22.5q0 20 15 29t32 9q18 0 34.5 -8t24.5 -20l20 20q-11 13 -30.5 23t-48.5 10q-31 0 -54.5 -17.5t-23.5 -46.5q0 -22 15 -38.5
t55 -22.5q64 -11 64 -42q0 -21 -17 -31t-39 -10q-23 0 -39.5 12.5t-22.5 20.5l-21 -21q13 -14 33 -25.5t50 -11.5q14 0 29 3.5t28 11.5t21 21t8 32z" />
    <glyph glyph-name="product" horiz-adv-x="540" 
d="M636 634q-45 49 -135 49q-39 0 -72.5 -12.5t-57.5 -36.5q-20 23 -53.5 36t-73.5 13q-37 0 -69.5 -11.5t-57 -32.5t-38.5 -50.5t-14 -65.5v-40h-80v-97h80v-386h130v386h131v-386h130v386h98v97h-98v39q0 29 17.5 45.5t43.5 16.5q41 0 64 -29zM330 556q-4 -13 -4 -33v-40
h-131v39q0 29 19.5 45.5t45.5 16.5q21 0 40 -6.5t30 -21.5z" />
    <glyph glyph-name="pi" horiz-adv-x="778" 
d="M743 333q0 73 -28 137.5t-76 112.5t-112.5 76t-137.5 28t-137.5 -28t-112.5 -76t-76 -112.5t-28 -137.5t28 -137.5t76 -112.5t112.5 -76t137.5 -28t137.5 28t112.5 76t76 112.5t28 137.5zM700 333q0 -64 -24.5 -120.5t-66.5 -98.5t-99 -66.5t-121 -24.5t-120.5 24.5
t-98.5 66.5t-66.5 98.5t-24.5 120.5t24.5 120.5t66.5 98.5t98.5 66.5t120.5 24.5t121 -24.5t99 -66.5t66.5 -98.5t24.5 -120.5zM560 413q0 28 -10.5 50.5t-28.5 38.5t-41 25t-48 9h-166v-405h54v161h112q25 0 48.5 9t41 25t28 38t10.5 49zM503 413q0 -16 -6 -29.5t-16 -23
t-23 -15t-26 -5.5h-112v148l112 -1q13 0 26 -5.5t23 -15t16 -23.5t6 -30z" />
    <glyph glyph-name="integral" horiz-adv-x="775" 
d="M716 0v483h-130v-483h130zM695 607q-37 43 -79.5 59.5t-99.5 16.5q-41 0 -78.5 -12.5t-65.5 -37.5q-20 23 -54 36.5t-74 13.5q-37 0 -69.5 -11.5t-57 -32.5t-38.5 -50.5t-14 -65.5v-40h-80v-97h80v-386h130v386h131v-386h130v386h90v97h-90v39q0 30 22.5 46t51.5 16
q32 0 55 -10.5t40 -37.5zM330 555q-4 -12 -4 -32v-40h-131v39q0 29 19.5 45.5t45.5 16.5q21 0 40 -7t30 -22z" />
    <glyph glyph-name="Omega" horiz-adv-x="661" 
d="M618 0v572h-571v-572h571z" />
    <glyph glyph-name="radical" horiz-adv-x="531" 
d="M531 594l-43 43l-295 -550l-160 221l-33 -75l202 -246z" />
    <glyph glyph-name="approxequal" horiz-adv-x="661" 
d="M618 0v572h-571v-572h571zM582 36h-500v500h500v-500z" />
    <glyph glyph-name="Delta" horiz-adv-x="616" 
d="M617 29l-310 536l-309 -535z" />
    <glyph glyph-name="nonbreakingspace" horiz-adv-x="208" 
 />
    <glyph glyph-name="lozenge" horiz-adv-x="501" 
d="M501 285l-251 251l-250 -251l250 -250z" />
    <glyph glyph-name="apple" horiz-adv-x="695" 
d="M644 285q0 61 -23.5 115.5t-63.5 94.5t-94.5 63.5t-115.5 23.5q-62 0 -116 -23.5t-94 -63.5t-63.5 -94.5t-23.5 -115.5q0 -62 23.5 -116t63.5 -94t94 -63.5t116 -23.5q61 0 115.5 23.5t94.5 63.5t63.5 94t23.5 116z" />
    </font>
</defs>
</svg>
